%FSLAX45Y45*%
G04 Gerber Fmt 4.5, Leading zero omitted, Abs format (unit mm)*
G04 Created by KiCad (PCBNEW 6.0.5-a6ca702e91~116~ubuntu20.04.1) date 2022-06-20 08:21:17*
%MOMM*%
%LPD*%
G01*
G04 APERTURE LIST*
%TA.AperFunction,Profile*%
%ADD10C,0.150000*%
%TD*%
%ADD11C,0.200000*%
G04 APERTURE END LIST*
D10*
X10250000Y-9150000D02*
X10725000Y-9150000D01*
X12100000Y-9750000D02*
X12100000Y-9400000D01*
X10650000Y-5466000D02*
X11450000Y-5466000D01*
X10400000Y-7700000D02*
X10400000Y-5716000D01*
X11375000Y-9150000D02*
X11850000Y-9150000D01*
X11300000Y-9075000D02*
G75*
G03*
X11375000Y-9150000I75000J0D01*
G01*
X10725000Y-9150000D02*
G75*
G03*
X10800000Y-9075000I0J75000D01*
G01*
X10800000Y-8025000D02*
X10800000Y-9075000D01*
X11300000Y-8025000D02*
X11300000Y-9075000D01*
X11375000Y-7950000D02*
G75*
G03*
X11300000Y-8025000I0J-75000D01*
G01*
X10800000Y-8025000D02*
G75*
G03*
X10725000Y-7950000I-75000J0D01*
G01*
X10650000Y-7950000D02*
X10725000Y-7950000D01*
X11375000Y-7950000D02*
X11450000Y-7950000D01*
X10400000Y-7700000D02*
G75*
G03*
X10650000Y-7950000I250000J0D01*
G01*
X11450000Y-7950000D02*
G75*
G03*
X11700000Y-7700000I0J250000D01*
G01*
X11700000Y-7700000D02*
X11700000Y-5710000D01*
X10650000Y-5466000D02*
G75*
G03*
X10400000Y-5716000I0J-250000D01*
G01*
X11700000Y-5710000D02*
G75*
G03*
X11450000Y-5466000I-250000J-6074D01*
G01*
X10000000Y-9745000D02*
G75*
G03*
X10250000Y-10000000I250000J-4951D01*
G01*
X12100000Y-9400000D02*
G75*
G03*
X11850000Y-9150000I-250000J0D01*
G01*
X10250000Y-10000000D02*
X11850000Y-10000000D01*
X10250000Y-9150000D02*
G75*
G03*
X10000000Y-9400000I0J-250000D01*
G01*
X11850000Y-10000000D02*
G75*
G03*
X12100000Y-9750000I0J250000D01*
G01*
X10000000Y-9745000D02*
X10000000Y-9400000D01*
D11*
X10250070Y-10317976D02*
X10250070Y-10117976D01*
X10297689Y-10117976D01*
X10326260Y-10127500D01*
X10345308Y-10146548D01*
X10354832Y-10165595D01*
X10364356Y-10203690D01*
X10364356Y-10232262D01*
X10354832Y-10270357D01*
X10345308Y-10289405D01*
X10326260Y-10308452D01*
X10297689Y-10317976D01*
X10250070Y-10317976D01*
X10450070Y-10317976D02*
X10450070Y-10184643D01*
X10450070Y-10222738D02*
X10459594Y-10203690D01*
X10469118Y-10194167D01*
X10488165Y-10184643D01*
X10507213Y-10184643D01*
X10573879Y-10317976D02*
X10573879Y-10184643D01*
X10573879Y-10117976D02*
X10564356Y-10127500D01*
X10573879Y-10137024D01*
X10583403Y-10127500D01*
X10573879Y-10117976D01*
X10573879Y-10137024D01*
X10697689Y-10317976D02*
X10678641Y-10308452D01*
X10669118Y-10289405D01*
X10669118Y-10117976D01*
X10802451Y-10317976D02*
X10783403Y-10308452D01*
X10773879Y-10289405D01*
X10773879Y-10117976D01*
X11031022Y-10317976D02*
X11031022Y-10117976D01*
X11097689Y-10260833D01*
X11164356Y-10117976D01*
X11164356Y-10317976D01*
X11345308Y-10317976D02*
X11345308Y-10213214D01*
X11335784Y-10194167D01*
X11316737Y-10184643D01*
X11278641Y-10184643D01*
X11259594Y-10194167D01*
X11345308Y-10308452D02*
X11326260Y-10317976D01*
X11278641Y-10317976D01*
X11259594Y-10308452D01*
X11250070Y-10289405D01*
X11250070Y-10270357D01*
X11259594Y-10251310D01*
X11278641Y-10241786D01*
X11326260Y-10241786D01*
X11345308Y-10232262D01*
X11440546Y-10184643D02*
X11440546Y-10384643D01*
X11440546Y-10194167D02*
X11459594Y-10184643D01*
X11497689Y-10184643D01*
X11516737Y-10194167D01*
X11526260Y-10203690D01*
X11535784Y-10222738D01*
X11535784Y-10279881D01*
X11526260Y-10298929D01*
X11516737Y-10308452D01*
X11497689Y-10317976D01*
X11459594Y-10317976D01*
X11440546Y-10308452D01*
X11621498Y-10298929D02*
X11631022Y-10308452D01*
X11621498Y-10317976D01*
X11611975Y-10308452D01*
X11621498Y-10298929D01*
X11621498Y-10317976D01*
X11621498Y-10194167D02*
X11631022Y-10203690D01*
X11621498Y-10213214D01*
X11611975Y-10203690D01*
X11621498Y-10194167D01*
X11621498Y-10213214D01*
M02*
