G04 #@! TF.GenerationSoftware,KiCad,Pcbnew,6.0.5-a6ca702e91~116~ubuntu20.04.1*
G04 #@! TF.CreationDate,2022-06-20T08:21:11+02:00*
G04 #@! TF.ProjectId,traffic_lights_pedestrian,74726166-6669-4635-9f6c-69676874735f,1.0*
G04 #@! TF.SameCoordinates,Original*
G04 #@! TF.FileFunction,Legend,Bot*
G04 #@! TF.FilePolarity,Positive*
%FSLAX46Y46*%
G04 Gerber Fmt 4.6, Leading zero omitted, Abs format (unit mm)*
G04 Created by KiCad (PCBNEW 6.0.5-a6ca702e91~116~ubuntu20.04.1) date 2022-06-20 08:21:11*
%MOMM*%
%LPD*%
G01*
G04 APERTURE LIST*
G04 Aperture macros list*
%AMRoundRect*
0 Rectangle with rounded corners*
0 $1 Rounding radius*
0 $2 $3 $4 $5 $6 $7 $8 $9 X,Y pos of 4 corners*
0 Add a 4 corners polygon primitive as box body*
4,1,4,$2,$3,$4,$5,$6,$7,$8,$9,$2,$3,0*
0 Add four circle primitives for the rounded corners*
1,1,$1+$1,$2,$3*
1,1,$1+$1,$4,$5*
1,1,$1+$1,$6,$7*
1,1,$1+$1,$8,$9*
0 Add four rect primitives between the rounded corners*
20,1,$1+$1,$2,$3,$4,$5,0*
20,1,$1+$1,$4,$5,$6,$7,0*
20,1,$1+$1,$6,$7,$8,$9,0*
20,1,$1+$1,$8,$9,$2,$3,0*%
G04 Aperture macros list end*
%ADD10C,0.150000*%
%ADD11C,0.200000*%
%ADD12C,0.120000*%
%ADD13C,0.010000*%
%ADD14RoundRect,0.051000X0.900000X0.900000X-0.900000X0.900000X-0.900000X-0.900000X0.900000X-0.900000X0*%
%ADD15C,1.902000*%
%ADD16RoundRect,0.051000X-0.850000X0.850000X-0.850000X-0.850000X0.850000X-0.850000X0.850000X0.850000X0*%
%ADD17O,1.802000X1.802000*%
%ADD18C,1.702000*%
%ADD19O,1.702000X1.702000*%
G04 APERTURE END LIST*
D10*
X115756666Y-57466666D02*
X115756666Y-56766666D01*
X115590000Y-56766666D01*
X115490000Y-56800000D01*
X115423333Y-56866666D01*
X115390000Y-56933333D01*
X115356666Y-57066666D01*
X115356666Y-57166666D01*
X115390000Y-57300000D01*
X115423333Y-57366666D01*
X115490000Y-57433333D01*
X115590000Y-57466666D01*
X115756666Y-57466666D01*
X114790000Y-57433333D02*
X114856666Y-57466666D01*
X114990000Y-57466666D01*
X115056666Y-57433333D01*
X115090000Y-57366666D01*
X115090000Y-57100000D01*
X115056666Y-57033333D01*
X114990000Y-57000000D01*
X114856666Y-57000000D01*
X114790000Y-57033333D01*
X114756666Y-57100000D01*
X114756666Y-57166666D01*
X115090000Y-57233333D01*
X114490000Y-57433333D02*
X114423333Y-57466666D01*
X114290000Y-57466666D01*
X114223333Y-57433333D01*
X114190000Y-57366666D01*
X114190000Y-57333333D01*
X114223333Y-57266666D01*
X114290000Y-57233333D01*
X114390000Y-57233333D01*
X114456666Y-57200000D01*
X114490000Y-57133333D01*
X114490000Y-57100000D01*
X114456666Y-57033333D01*
X114390000Y-57000000D01*
X114290000Y-57000000D01*
X114223333Y-57033333D01*
X113890000Y-57466666D02*
X113890000Y-57000000D01*
X113890000Y-56766666D02*
X113923333Y-56800000D01*
X113890000Y-56833333D01*
X113856666Y-56800000D01*
X113890000Y-56766666D01*
X113890000Y-56833333D01*
X113256666Y-57000000D02*
X113256666Y-57566666D01*
X113290000Y-57633333D01*
X113323333Y-57666666D01*
X113390000Y-57700000D01*
X113490000Y-57700000D01*
X113556666Y-57666666D01*
X113256666Y-57433333D02*
X113323333Y-57466666D01*
X113456666Y-57466666D01*
X113523333Y-57433333D01*
X113556666Y-57400000D01*
X113590000Y-57333333D01*
X113590000Y-57133333D01*
X113556666Y-57066666D01*
X113523333Y-57033333D01*
X113456666Y-57000000D01*
X113323333Y-57000000D01*
X113256666Y-57033333D01*
X112923333Y-57000000D02*
X112923333Y-57466666D01*
X112923333Y-57066666D02*
X112890000Y-57033333D01*
X112823333Y-57000000D01*
X112723333Y-57000000D01*
X112656666Y-57033333D01*
X112623333Y-57100000D01*
X112623333Y-57466666D01*
X112023333Y-57433333D02*
X112090000Y-57466666D01*
X112223333Y-57466666D01*
X112290000Y-57433333D01*
X112323333Y-57366666D01*
X112323333Y-57100000D01*
X112290000Y-57033333D01*
X112223333Y-57000000D01*
X112090000Y-57000000D01*
X112023333Y-57033333D01*
X111990000Y-57100000D01*
X111990000Y-57166666D01*
X112323333Y-57233333D01*
X111390000Y-57466666D02*
X111390000Y-56766666D01*
X111390000Y-57433333D02*
X111456666Y-57466666D01*
X111590000Y-57466666D01*
X111656666Y-57433333D01*
X111690000Y-57400000D01*
X111723333Y-57333333D01*
X111723333Y-57133333D01*
X111690000Y-57066666D01*
X111656666Y-57033333D01*
X111590000Y-57000000D01*
X111456666Y-57000000D01*
X111390000Y-57033333D01*
X110590000Y-57000000D02*
X110456666Y-57466666D01*
X110323333Y-57133333D01*
X110190000Y-57466666D01*
X110056666Y-57000000D01*
X109790000Y-57466666D02*
X109790000Y-57000000D01*
X109790000Y-56766666D02*
X109823333Y-56800000D01*
X109790000Y-56833333D01*
X109756666Y-56800000D01*
X109790000Y-56766666D01*
X109790000Y-56833333D01*
X109556666Y-57000000D02*
X109290000Y-57000000D01*
X109456666Y-56766666D02*
X109456666Y-57366666D01*
X109423333Y-57433333D01*
X109356666Y-57466666D01*
X109290000Y-57466666D01*
X109056666Y-57466666D02*
X109056666Y-56766666D01*
X108756666Y-57466666D02*
X108756666Y-57100000D01*
X108790000Y-57033333D01*
X108856666Y-57000000D01*
X108956666Y-57000000D01*
X109023333Y-57033333D01*
X109056666Y-57066666D01*
X107890000Y-57466666D02*
X107890000Y-56766666D01*
X107490000Y-57466666D02*
X107790000Y-57066666D01*
X107490000Y-56766666D02*
X107890000Y-57166666D01*
X107190000Y-57466666D02*
X107190000Y-57000000D01*
X107190000Y-56766666D02*
X107223333Y-56800000D01*
X107190000Y-56833333D01*
X107156666Y-56800000D01*
X107190000Y-56766666D01*
X107190000Y-56833333D01*
X106456666Y-57400000D02*
X106490000Y-57433333D01*
X106590000Y-57466666D01*
X106656666Y-57466666D01*
X106756666Y-57433333D01*
X106823333Y-57366666D01*
X106856666Y-57300000D01*
X106890000Y-57166666D01*
X106890000Y-57066666D01*
X106856666Y-56933333D01*
X106823333Y-56866666D01*
X106756666Y-56800000D01*
X106656666Y-56766666D01*
X106590000Y-56766666D01*
X106490000Y-56800000D01*
X106456666Y-56833333D01*
X105856666Y-57466666D02*
X105856666Y-57100000D01*
X105890000Y-57033333D01*
X105956666Y-57000000D01*
X106090000Y-57000000D01*
X106156666Y-57033333D01*
X105856666Y-57433333D02*
X105923333Y-57466666D01*
X106090000Y-57466666D01*
X106156666Y-57433333D01*
X106190000Y-57366666D01*
X106190000Y-57300000D01*
X106156666Y-57233333D01*
X106090000Y-57200000D01*
X105923333Y-57200000D01*
X105856666Y-57166666D01*
X105223333Y-57466666D02*
X105223333Y-56766666D01*
X105223333Y-57433333D02*
X105290000Y-57466666D01*
X105423333Y-57466666D01*
X105490000Y-57433333D01*
X105523333Y-57400000D01*
X105556666Y-57333333D01*
X105556666Y-57133333D01*
X105523333Y-57066666D01*
X105490000Y-57033333D01*
X105423333Y-57000000D01*
X105290000Y-57000000D01*
X105223333Y-57033333D01*
D11*
X114991571Y-75363642D02*
X114477285Y-75363642D01*
X114734428Y-76263642D02*
X114734428Y-75363642D01*
X114177285Y-76263642D02*
X114177285Y-75663642D01*
X114177285Y-75835071D02*
X114134428Y-75749357D01*
X114091571Y-75706500D01*
X114005857Y-75663642D01*
X113920142Y-75663642D01*
X113234428Y-76263642D02*
X113234428Y-75792214D01*
X113277285Y-75706500D01*
X113363000Y-75663642D01*
X113534428Y-75663642D01*
X113620142Y-75706500D01*
X113234428Y-76220785D02*
X113320142Y-76263642D01*
X113534428Y-76263642D01*
X113620142Y-76220785D01*
X113663000Y-76135071D01*
X113663000Y-76049357D01*
X113620142Y-75963642D01*
X113534428Y-75920785D01*
X113320142Y-75920785D01*
X113234428Y-75877928D01*
X112934428Y-75663642D02*
X112591571Y-75663642D01*
X112805857Y-76263642D02*
X112805857Y-75492214D01*
X112763000Y-75406500D01*
X112677285Y-75363642D01*
X112591571Y-75363642D01*
X112420142Y-75663642D02*
X112077285Y-75663642D01*
X112291571Y-76263642D02*
X112291571Y-75492214D01*
X112248714Y-75406500D01*
X112163000Y-75363642D01*
X112077285Y-75363642D01*
X111777285Y-76263642D02*
X111777285Y-75663642D01*
X111777285Y-75363642D02*
X111820142Y-75406500D01*
X111777285Y-75449357D01*
X111734428Y-75406500D01*
X111777285Y-75363642D01*
X111777285Y-75449357D01*
X110963000Y-76220785D02*
X111048714Y-76263642D01*
X111220142Y-76263642D01*
X111305857Y-76220785D01*
X111348714Y-76177928D01*
X111391571Y-76092214D01*
X111391571Y-75835071D01*
X111348714Y-75749357D01*
X111305857Y-75706500D01*
X111220142Y-75663642D01*
X111048714Y-75663642D01*
X110963000Y-75706500D01*
X109763000Y-76263642D02*
X109848714Y-76220785D01*
X109891571Y-76135071D01*
X109891571Y-75363642D01*
X109420142Y-76263642D02*
X109420142Y-75663642D01*
X109420142Y-75363642D02*
X109463000Y-75406500D01*
X109420142Y-75449357D01*
X109377285Y-75406500D01*
X109420142Y-75363642D01*
X109420142Y-75449357D01*
X108605857Y-75663642D02*
X108605857Y-76392214D01*
X108648714Y-76477928D01*
X108691571Y-76520785D01*
X108777285Y-76563642D01*
X108905857Y-76563642D01*
X108991571Y-76520785D01*
X108605857Y-76220785D02*
X108691571Y-76263642D01*
X108863000Y-76263642D01*
X108948714Y-76220785D01*
X108991571Y-76177928D01*
X109034428Y-76092214D01*
X109034428Y-75835071D01*
X108991571Y-75749357D01*
X108948714Y-75706500D01*
X108863000Y-75663642D01*
X108691571Y-75663642D01*
X108605857Y-75706500D01*
X108177285Y-76263642D02*
X108177285Y-75363642D01*
X107791571Y-76263642D02*
X107791571Y-75792214D01*
X107834428Y-75706500D01*
X107920142Y-75663642D01*
X108048714Y-75663642D01*
X108134428Y-75706500D01*
X108177285Y-75749357D01*
X107491571Y-75663642D02*
X107148714Y-75663642D01*
X107363000Y-75363642D02*
X107363000Y-76135071D01*
X107320142Y-76220785D01*
X107234428Y-76263642D01*
X107148714Y-76263642D01*
X106891571Y-76220785D02*
X106805857Y-76263642D01*
X106634428Y-76263642D01*
X106548714Y-76220785D01*
X106505857Y-76135071D01*
X106505857Y-76092214D01*
X106548714Y-76006500D01*
X106634428Y-75963642D01*
X106763000Y-75963642D01*
X106848714Y-75920785D01*
X106891571Y-75835071D01*
X106891571Y-75792214D01*
X106848714Y-75706500D01*
X106763000Y-75663642D01*
X106634428Y-75663642D01*
X106548714Y-75706500D01*
X115763000Y-77712642D02*
X115763000Y-76812642D01*
X115763000Y-77155500D02*
X115677285Y-77112642D01*
X115505857Y-77112642D01*
X115420142Y-77155500D01*
X115377285Y-77198357D01*
X115334428Y-77284071D01*
X115334428Y-77541214D01*
X115377285Y-77626928D01*
X115420142Y-77669785D01*
X115505857Y-77712642D01*
X115677285Y-77712642D01*
X115763000Y-77669785D01*
X115034428Y-77112642D02*
X114820142Y-77712642D01*
X114605857Y-77112642D02*
X114820142Y-77712642D01*
X114905857Y-77926928D01*
X114948714Y-77969785D01*
X115034428Y-78012642D01*
X113063000Y-77712642D02*
X113363000Y-77284071D01*
X113577285Y-77712642D02*
X113577285Y-76812642D01*
X113234428Y-76812642D01*
X113148714Y-76855500D01*
X113105857Y-76898357D01*
X113063000Y-76984071D01*
X113063000Y-77112642D01*
X113105857Y-77198357D01*
X113148714Y-77241214D01*
X113234428Y-77284071D01*
X113577285Y-77284071D01*
X112548714Y-77712642D02*
X112634428Y-77669785D01*
X112677285Y-77626928D01*
X112720142Y-77541214D01*
X112720142Y-77284071D01*
X112677285Y-77198357D01*
X112634428Y-77155500D01*
X112548714Y-77112642D01*
X112420142Y-77112642D01*
X112334428Y-77155500D01*
X112291571Y-77198357D01*
X112248714Y-77284071D01*
X112248714Y-77541214D01*
X112291571Y-77626928D01*
X112334428Y-77669785D01*
X112420142Y-77712642D01*
X112548714Y-77712642D01*
X111863000Y-77712642D02*
X111863000Y-76812642D01*
X111863000Y-77155500D02*
X111777285Y-77112642D01*
X111605857Y-77112642D01*
X111520142Y-77155500D01*
X111477285Y-77198357D01*
X111434428Y-77284071D01*
X111434428Y-77541214D01*
X111477285Y-77626928D01*
X111520142Y-77669785D01*
X111605857Y-77712642D01*
X111777285Y-77712642D01*
X111863000Y-77669785D01*
X110705857Y-77669785D02*
X110791571Y-77712642D01*
X110963000Y-77712642D01*
X111048714Y-77669785D01*
X111091571Y-77584071D01*
X111091571Y-77241214D01*
X111048714Y-77155500D01*
X110963000Y-77112642D01*
X110791571Y-77112642D01*
X110705857Y-77155500D01*
X110663000Y-77241214D01*
X110663000Y-77326928D01*
X111091571Y-77412642D01*
X110277285Y-77712642D02*
X110277285Y-77112642D01*
X110277285Y-77284071D02*
X110234428Y-77198357D01*
X110191571Y-77155500D01*
X110105857Y-77112642D01*
X110020142Y-77112642D01*
X109848714Y-77112642D02*
X109505857Y-77112642D01*
X109720142Y-76812642D02*
X109720142Y-77584071D01*
X109677285Y-77669785D01*
X109591571Y-77712642D01*
X109505857Y-77712642D01*
X108563000Y-77669785D02*
X108434428Y-77712642D01*
X108220142Y-77712642D01*
X108134428Y-77669785D01*
X108091571Y-77626928D01*
X108048714Y-77541214D01*
X108048714Y-77455500D01*
X108091571Y-77369785D01*
X108134428Y-77326928D01*
X108220142Y-77284071D01*
X108391571Y-77241214D01*
X108477285Y-77198357D01*
X108520142Y-77155500D01*
X108563000Y-77069785D01*
X108563000Y-76984071D01*
X108520142Y-76898357D01*
X108477285Y-76855500D01*
X108391571Y-76812642D01*
X108177285Y-76812642D01*
X108048714Y-76855500D01*
X107320142Y-77669785D02*
X107405857Y-77712642D01*
X107577285Y-77712642D01*
X107663000Y-77669785D01*
X107705857Y-77584071D01*
X107705857Y-77241214D01*
X107663000Y-77155500D01*
X107577285Y-77112642D01*
X107405857Y-77112642D01*
X107320142Y-77155500D01*
X107277285Y-77241214D01*
X107277285Y-77326928D01*
X107705857Y-77412642D01*
X106505857Y-77712642D02*
X106505857Y-76812642D01*
X106505857Y-77669785D02*
X106591571Y-77712642D01*
X106763000Y-77712642D01*
X106848714Y-77669785D01*
X106891571Y-77626928D01*
X106934428Y-77541214D01*
X106934428Y-77284071D01*
X106891571Y-77198357D01*
X106848714Y-77155500D01*
X106763000Y-77112642D01*
X106591571Y-77112642D01*
X106505857Y-77155500D01*
X105691571Y-77712642D02*
X105691571Y-77241214D01*
X105734428Y-77155500D01*
X105820142Y-77112642D01*
X105991571Y-77112642D01*
X106077285Y-77155500D01*
X105691571Y-77669785D02*
X105777285Y-77712642D01*
X105991571Y-77712642D01*
X106077285Y-77669785D01*
X106120142Y-77584071D01*
X106120142Y-77498357D01*
X106077285Y-77412642D01*
X105991571Y-77369785D01*
X105777285Y-77369785D01*
X105691571Y-77326928D01*
X105263000Y-77712642D02*
X105263000Y-76812642D01*
X105177285Y-77369785D02*
X104920142Y-77712642D01*
X104920142Y-77112642D02*
X105263000Y-77455500D01*
D10*
X110656666Y-64587380D02*
X110990000Y-64111190D01*
X111228095Y-64587380D02*
X111228095Y-63587380D01*
X110847142Y-63587380D01*
X110751904Y-63635000D01*
X110704285Y-63682619D01*
X110656666Y-63777857D01*
X110656666Y-63920714D01*
X110704285Y-64015952D01*
X110751904Y-64063571D01*
X110847142Y-64111190D01*
X111228095Y-64111190D01*
X109704285Y-64587380D02*
X110275714Y-64587380D01*
X109990000Y-64587380D02*
X109990000Y-63587380D01*
X110085238Y-63730238D01*
X110180476Y-63825476D01*
X110275714Y-63873095D01*
X110656666Y-73477380D02*
X110990000Y-73001190D01*
X111228095Y-73477380D02*
X111228095Y-72477380D01*
X110847142Y-72477380D01*
X110751904Y-72525000D01*
X110704285Y-72572619D01*
X110656666Y-72667857D01*
X110656666Y-72810714D01*
X110704285Y-72905952D01*
X110751904Y-72953571D01*
X110847142Y-73001190D01*
X111228095Y-73001190D01*
X110275714Y-72572619D02*
X110228095Y-72525000D01*
X110132857Y-72477380D01*
X109894761Y-72477380D01*
X109799523Y-72525000D01*
X109751904Y-72572619D01*
X109704285Y-72667857D01*
X109704285Y-72763095D01*
X109751904Y-72905952D01*
X110323333Y-73477380D01*
X109704285Y-73477380D01*
D12*
X107220000Y-65505000D02*
X113760000Y-65505000D01*
X107220000Y-63095000D02*
X107220000Y-62765000D01*
X107220000Y-65175000D02*
X107220000Y-65505000D01*
X107220000Y-62765000D02*
X113760000Y-62765000D01*
X113760000Y-65505000D02*
X113760000Y-65175000D01*
X113760000Y-62765000D02*
X113760000Y-63095000D01*
X107220000Y-71655000D02*
X107220000Y-71985000D01*
X113760000Y-74065000D02*
X113760000Y-74395000D01*
X107220000Y-74395000D02*
X107220000Y-74065000D01*
X113760000Y-74395000D02*
X107220000Y-74395000D01*
X113760000Y-71985000D02*
X113760000Y-71655000D01*
X113760000Y-71655000D02*
X107220000Y-71655000D01*
G36*
X108107825Y-95161121D02*
G01*
X108107615Y-95163014D01*
X108089535Y-95251325D01*
X108056870Y-95319986D01*
X108008601Y-95370506D01*
X107943713Y-95404393D01*
X107931801Y-95408268D01*
X107857971Y-95419688D01*
X107781614Y-95413320D01*
X107710626Y-95390563D01*
X107652904Y-95352819D01*
X107609667Y-95312872D01*
X107655625Y-95276532D01*
X107701583Y-95240193D01*
X107756969Y-95267101D01*
X107821056Y-95288905D01*
X107877632Y-95289558D01*
X107923920Y-95269525D01*
X107957230Y-95229315D01*
X107969171Y-95205222D01*
X107975837Y-95184630D01*
X107971980Y-95170720D01*
X107954675Y-95162181D01*
X107920997Y-95157704D01*
X107868021Y-95155978D01*
X107792822Y-95155693D01*
X107610495Y-95155693D01*
X107610495Y-95068492D01*
X107611857Y-95030210D01*
X107740234Y-95030210D01*
X107746399Y-95037251D01*
X107764654Y-95040916D01*
X107799352Y-95042306D01*
X107854846Y-95042525D01*
X107884603Y-95042176D01*
X107931562Y-95039867D01*
X107963416Y-95035822D01*
X107975148Y-95030542D01*
X107972146Y-95011062D01*
X107950988Y-94973786D01*
X107915731Y-94943164D01*
X107873699Y-94924668D01*
X107832220Y-94923773D01*
X107800997Y-94938604D01*
X107765618Y-94972355D01*
X107743122Y-95014233D01*
X107741805Y-95018690D01*
X107740234Y-95030210D01*
X107611857Y-95030210D01*
X107612136Y-95022371D01*
X107616955Y-94976740D01*
X107623840Y-94945893D01*
X107628859Y-94934117D01*
X107665390Y-94881667D01*
X107718175Y-94837921D01*
X107779904Y-94809279D01*
X107812102Y-94801457D01*
X107888820Y-94797896D01*
X107957179Y-94816009D01*
X108015299Y-94853779D01*
X108061302Y-94909191D01*
X108093310Y-94980229D01*
X108102900Y-95030542D01*
X108109444Y-95064878D01*
X108107825Y-95161121D01*
G37*
D13*
X108107825Y-95161121D02*
X108107615Y-95163014D01*
X108089535Y-95251325D01*
X108056870Y-95319986D01*
X108008601Y-95370506D01*
X107943713Y-95404393D01*
X107931801Y-95408268D01*
X107857971Y-95419688D01*
X107781614Y-95413320D01*
X107710626Y-95390563D01*
X107652904Y-95352819D01*
X107609667Y-95312872D01*
X107655625Y-95276532D01*
X107701583Y-95240193D01*
X107756969Y-95267101D01*
X107821056Y-95288905D01*
X107877632Y-95289558D01*
X107923920Y-95269525D01*
X107957230Y-95229315D01*
X107969171Y-95205222D01*
X107975837Y-95184630D01*
X107971980Y-95170720D01*
X107954675Y-95162181D01*
X107920997Y-95157704D01*
X107868021Y-95155978D01*
X107792822Y-95155693D01*
X107610495Y-95155693D01*
X107610495Y-95068492D01*
X107611857Y-95030210D01*
X107740234Y-95030210D01*
X107746399Y-95037251D01*
X107764654Y-95040916D01*
X107799352Y-95042306D01*
X107854846Y-95042525D01*
X107884603Y-95042176D01*
X107931562Y-95039867D01*
X107963416Y-95035822D01*
X107975148Y-95030542D01*
X107972146Y-95011062D01*
X107950988Y-94973786D01*
X107915731Y-94943164D01*
X107873699Y-94924668D01*
X107832220Y-94923773D01*
X107800997Y-94938604D01*
X107765618Y-94972355D01*
X107743122Y-95014233D01*
X107741805Y-95018690D01*
X107740234Y-95030210D01*
X107611857Y-95030210D01*
X107612136Y-95022371D01*
X107616955Y-94976740D01*
X107623840Y-94945893D01*
X107628859Y-94934117D01*
X107665390Y-94881667D01*
X107718175Y-94837921D01*
X107779904Y-94809279D01*
X107812102Y-94801457D01*
X107888820Y-94797896D01*
X107957179Y-94816009D01*
X108015299Y-94853779D01*
X108061302Y-94909191D01*
X108093310Y-94980229D01*
X108102900Y-95030542D01*
X108109444Y-95064878D01*
X108107825Y-95161121D01*
G36*
X112699926Y-96360336D02*
G01*
X112633911Y-96356535D01*
X112630772Y-96155347D01*
X112629844Y-96106425D01*
X112627208Y-96032926D01*
X112622683Y-95978991D01*
X112615438Y-95940995D01*
X112604642Y-95915313D01*
X112589462Y-95898320D01*
X112569066Y-95886389D01*
X112530797Y-95874205D01*
X112492738Y-95878940D01*
X112452549Y-95904979D01*
X112413861Y-95937533D01*
X112413861Y-96362822D01*
X112275544Y-96362822D01*
X112275544Y-96132176D01*
X112275677Y-96059882D01*
X112276413Y-95995641D01*
X112278181Y-95948618D01*
X112281411Y-95914548D01*
X112286530Y-95889170D01*
X112293967Y-95868221D01*
X112304150Y-95847436D01*
X112306564Y-95843024D01*
X112338675Y-95800047D01*
X112376256Y-95770013D01*
X112421564Y-95754243D01*
X112481561Y-95747222D01*
X112541643Y-95751025D01*
X112590525Y-95765868D01*
X112627624Y-95785052D01*
X112627624Y-95369859D01*
X112576792Y-95396354D01*
X112555558Y-95405980D01*
X112488536Y-95419592D01*
X112421930Y-95410184D01*
X112360187Y-95378905D01*
X112307757Y-95326902D01*
X112299543Y-95314680D01*
X112291649Y-95296763D01*
X112286500Y-95272404D01*
X112283527Y-95236927D01*
X112282161Y-95185656D01*
X112281915Y-95132236D01*
X112414749Y-95132236D01*
X112414861Y-95176849D01*
X112418272Y-95206601D01*
X112425937Y-95227835D01*
X112438814Y-95246896D01*
X112455171Y-95264617D01*
X112481329Y-95278028D01*
X112520742Y-95281436D01*
X112555559Y-95278471D01*
X112590020Y-95263631D01*
X112612215Y-95233569D01*
X112624097Y-95185254D01*
X112627624Y-95115650D01*
X112626712Y-95078624D01*
X112617609Y-95008728D01*
X112598828Y-94961464D01*
X112570476Y-94937168D01*
X112541840Y-94930332D01*
X112491970Y-94933537D01*
X112449833Y-94953380D01*
X112439749Y-94962480D01*
X112429063Y-94978223D01*
X112422456Y-95001658D01*
X112418532Y-95038604D01*
X112415897Y-95094880D01*
X112414749Y-95132236D01*
X112281915Y-95132236D01*
X112281831Y-95113917D01*
X112281944Y-95081184D01*
X112283872Y-95005044D01*
X112289240Y-94948166D01*
X112299406Y-94906249D01*
X112315725Y-94874996D01*
X112339553Y-94850106D01*
X112372247Y-94827282D01*
X112398759Y-94814184D01*
X112461615Y-94799739D01*
X112527869Y-94801707D01*
X112586757Y-94820433D01*
X112612030Y-94832673D01*
X112624742Y-94833938D01*
X112627624Y-94822798D01*
X112627626Y-94822461D01*
X112633838Y-94811087D01*
X112655260Y-94805256D01*
X112696782Y-94803614D01*
X112765940Y-94803614D01*
X112765940Y-96364136D01*
X112699926Y-96360336D01*
G37*
X112699926Y-96360336D02*
X112633911Y-96356535D01*
X112630772Y-96155347D01*
X112629844Y-96106425D01*
X112627208Y-96032926D01*
X112622683Y-95978991D01*
X112615438Y-95940995D01*
X112604642Y-95915313D01*
X112589462Y-95898320D01*
X112569066Y-95886389D01*
X112530797Y-95874205D01*
X112492738Y-95878940D01*
X112452549Y-95904979D01*
X112413861Y-95937533D01*
X112413861Y-96362822D01*
X112275544Y-96362822D01*
X112275544Y-96132176D01*
X112275677Y-96059882D01*
X112276413Y-95995641D01*
X112278181Y-95948618D01*
X112281411Y-95914548D01*
X112286530Y-95889170D01*
X112293967Y-95868221D01*
X112304150Y-95847436D01*
X112306564Y-95843024D01*
X112338675Y-95800047D01*
X112376256Y-95770013D01*
X112421564Y-95754243D01*
X112481561Y-95747222D01*
X112541643Y-95751025D01*
X112590525Y-95765868D01*
X112627624Y-95785052D01*
X112627624Y-95369859D01*
X112576792Y-95396354D01*
X112555558Y-95405980D01*
X112488536Y-95419592D01*
X112421930Y-95410184D01*
X112360187Y-95378905D01*
X112307757Y-95326902D01*
X112299543Y-95314680D01*
X112291649Y-95296763D01*
X112286500Y-95272404D01*
X112283527Y-95236927D01*
X112282161Y-95185656D01*
X112281915Y-95132236D01*
X112414749Y-95132236D01*
X112414861Y-95176849D01*
X112418272Y-95206601D01*
X112425937Y-95227835D01*
X112438814Y-95246896D01*
X112455171Y-95264617D01*
X112481329Y-95278028D01*
X112520742Y-95281436D01*
X112555559Y-95278471D01*
X112590020Y-95263631D01*
X112612215Y-95233569D01*
X112624097Y-95185254D01*
X112627624Y-95115650D01*
X112626712Y-95078624D01*
X112617609Y-95008728D01*
X112598828Y-94961464D01*
X112570476Y-94937168D01*
X112541840Y-94930332D01*
X112491970Y-94933537D01*
X112449833Y-94953380D01*
X112439749Y-94962480D01*
X112429063Y-94978223D01*
X112422456Y-95001658D01*
X112418532Y-95038604D01*
X112415897Y-95094880D01*
X112414749Y-95132236D01*
X112281915Y-95132236D01*
X112281831Y-95113917D01*
X112281944Y-95081184D01*
X112283872Y-95005044D01*
X112289240Y-94948166D01*
X112299406Y-94906249D01*
X112315725Y-94874996D01*
X112339553Y-94850106D01*
X112372247Y-94827282D01*
X112398759Y-94814184D01*
X112461615Y-94799739D01*
X112527869Y-94801707D01*
X112586757Y-94820433D01*
X112612030Y-94832673D01*
X112624742Y-94833938D01*
X112627624Y-94822798D01*
X112627626Y-94822461D01*
X112633838Y-94811087D01*
X112655260Y-94805256D01*
X112696782Y-94803614D01*
X112765940Y-94803614D01*
X112765940Y-96364136D01*
X112699926Y-96360336D01*
G36*
X109764244Y-96254419D02*
G01*
X109731277Y-96303255D01*
X109681270Y-96338386D01*
X109676362Y-96340521D01*
X109621646Y-96355903D01*
X109559993Y-96361899D01*
X109501376Y-96358233D01*
X109455767Y-96344629D01*
X109437549Y-96335754D01*
X109424179Y-96333637D01*
X109421188Y-96344706D01*
X109415524Y-96354942D01*
X109393607Y-96361038D01*
X109351068Y-96362822D01*
X109280948Y-96362822D01*
X109284680Y-96142773D01*
X109421188Y-96142773D01*
X109425924Y-96175666D01*
X109446336Y-96211931D01*
X109453871Y-96218597D01*
X109484753Y-96232620D01*
X109531213Y-96236228D01*
X109559090Y-96234819D01*
X109611255Y-96224204D01*
X109643587Y-96204425D01*
X109654492Y-96176824D01*
X109642374Y-96142743D01*
X109635304Y-96133824D01*
X109603724Y-96113818D01*
X109553744Y-96102395D01*
X109482487Y-96098763D01*
X109421188Y-96098763D01*
X109421188Y-96142773D01*
X109284680Y-96142773D01*
X109285053Y-96120768D01*
X109286169Y-96064794D01*
X109289106Y-95980996D01*
X109294058Y-95916920D01*
X109302002Y-95869073D01*
X109313917Y-95833962D01*
X109330780Y-95808093D01*
X109353572Y-95787974D01*
X109383269Y-95770110D01*
X109398589Y-95763290D01*
X109451589Y-95750417D01*
X109515513Y-95745095D01*
X109581602Y-95747227D01*
X109641099Y-95756714D01*
X109685247Y-95773461D01*
X109700604Y-95783185D01*
X109735960Y-95812005D01*
X109747926Y-95836137D01*
X109745020Y-95840800D01*
X109726909Y-95857088D01*
X109697672Y-95878817D01*
X109682725Y-95888987D01*
X109657270Y-95903397D01*
X109640728Y-95904773D01*
X109625370Y-95894827D01*
X109587094Y-95874684D01*
X109535590Y-95866400D01*
X109482957Y-95872742D01*
X109481961Y-95873030D01*
X109444838Y-95889158D01*
X109426463Y-95914405D01*
X109421380Y-95956158D01*
X109421188Y-95995879D01*
X109552423Y-96000168D01*
X109573331Y-96000873D01*
X109626043Y-96003326D01*
X109661381Y-96007180D01*
X109685267Y-96013878D01*
X109703624Y-96024864D01*
X109722376Y-96041580D01*
X109753337Y-96080244D01*
X109776029Y-96137456D01*
X109778254Y-96176824D01*
X109779413Y-96197333D01*
X109764244Y-96254419D01*
G37*
X109764244Y-96254419D02*
X109731277Y-96303255D01*
X109681270Y-96338386D01*
X109676362Y-96340521D01*
X109621646Y-96355903D01*
X109559993Y-96361899D01*
X109501376Y-96358233D01*
X109455767Y-96344629D01*
X109437549Y-96335754D01*
X109424179Y-96333637D01*
X109421188Y-96344706D01*
X109415524Y-96354942D01*
X109393607Y-96361038D01*
X109351068Y-96362822D01*
X109280948Y-96362822D01*
X109284680Y-96142773D01*
X109421188Y-96142773D01*
X109425924Y-96175666D01*
X109446336Y-96211931D01*
X109453871Y-96218597D01*
X109484753Y-96232620D01*
X109531213Y-96236228D01*
X109559090Y-96234819D01*
X109611255Y-96224204D01*
X109643587Y-96204425D01*
X109654492Y-96176824D01*
X109642374Y-96142743D01*
X109635304Y-96133824D01*
X109603724Y-96113818D01*
X109553744Y-96102395D01*
X109482487Y-96098763D01*
X109421188Y-96098763D01*
X109421188Y-96142773D01*
X109284680Y-96142773D01*
X109285053Y-96120768D01*
X109286169Y-96064794D01*
X109289106Y-95980996D01*
X109294058Y-95916920D01*
X109302002Y-95869073D01*
X109313917Y-95833962D01*
X109330780Y-95808093D01*
X109353572Y-95787974D01*
X109383269Y-95770110D01*
X109398589Y-95763290D01*
X109451589Y-95750417D01*
X109515513Y-95745095D01*
X109581602Y-95747227D01*
X109641099Y-95756714D01*
X109685247Y-95773461D01*
X109700604Y-95783185D01*
X109735960Y-95812005D01*
X109747926Y-95836137D01*
X109745020Y-95840800D01*
X109726909Y-95857088D01*
X109697672Y-95878817D01*
X109682725Y-95888987D01*
X109657270Y-95903397D01*
X109640728Y-95904773D01*
X109625370Y-95894827D01*
X109587094Y-95874684D01*
X109535590Y-95866400D01*
X109482957Y-95872742D01*
X109481961Y-95873030D01*
X109444838Y-95889158D01*
X109426463Y-95914405D01*
X109421380Y-95956158D01*
X109421188Y-95995879D01*
X109552423Y-96000168D01*
X109573331Y-96000873D01*
X109626043Y-96003326D01*
X109661381Y-96007180D01*
X109685267Y-96013878D01*
X109703624Y-96024864D01*
X109722376Y-96041580D01*
X109753337Y-96080244D01*
X109776029Y-96137456D01*
X109778254Y-96176824D01*
X109779413Y-96197333D01*
X109764244Y-96254419D01*
G36*
X113353373Y-95179310D02*
G01*
X113349688Y-95227332D01*
X113343410Y-95261368D01*
X113333044Y-95288338D01*
X113317092Y-95315158D01*
X113316412Y-95316175D01*
X113277132Y-95359629D01*
X113229072Y-95392772D01*
X113173185Y-95412439D01*
X113099666Y-95418824D01*
X113027609Y-95406268D01*
X112963201Y-95376011D01*
X112912627Y-95329294D01*
X112898108Y-95307221D01*
X112870993Y-95238602D01*
X112857546Y-95153939D01*
X112857776Y-95132523D01*
X112992920Y-95132523D01*
X112993174Y-95172574D01*
X112997421Y-95199313D01*
X113007096Y-95219859D01*
X113023638Y-95241331D01*
X113046593Y-95262639D01*
X113092505Y-95281653D01*
X113141802Y-95278122D01*
X113188917Y-95251694D01*
X113202207Y-95239072D01*
X113216397Y-95217465D01*
X113224266Y-95187094D01*
X113228726Y-95139770D01*
X113229955Y-95104219D01*
X113223224Y-95031620D01*
X113202567Y-94979642D01*
X113167894Y-94947999D01*
X113127249Y-94932847D01*
X113078777Y-94934123D01*
X113033845Y-94959703D01*
X113023103Y-94969442D01*
X113009548Y-94986480D01*
X113001505Y-95008772D01*
X112997043Y-95042947D01*
X112994228Y-95095638D01*
X112992920Y-95132523D01*
X112857776Y-95132523D01*
X112858583Y-95057351D01*
X112859907Y-95043651D01*
X112878374Y-94955908D01*
X112912540Y-94887793D01*
X112962479Y-94839231D01*
X113028261Y-94810148D01*
X113109961Y-94800471D01*
X113140828Y-94801379D01*
X113204128Y-94812493D01*
X113255889Y-94839021D01*
X113304147Y-94884436D01*
X113311865Y-94893551D01*
X113332681Y-94924248D01*
X113346362Y-94959007D01*
X113353948Y-95003056D01*
X113356479Y-95061621D01*
X113355672Y-95104219D01*
X113354997Y-95139931D01*
X113353373Y-95179310D01*
G37*
X113353373Y-95179310D02*
X113349688Y-95227332D01*
X113343410Y-95261368D01*
X113333044Y-95288338D01*
X113317092Y-95315158D01*
X113316412Y-95316175D01*
X113277132Y-95359629D01*
X113229072Y-95392772D01*
X113173185Y-95412439D01*
X113099666Y-95418824D01*
X113027609Y-95406268D01*
X112963201Y-95376011D01*
X112912627Y-95329294D01*
X112898108Y-95307221D01*
X112870993Y-95238602D01*
X112857546Y-95153939D01*
X112857776Y-95132523D01*
X112992920Y-95132523D01*
X112993174Y-95172574D01*
X112997421Y-95199313D01*
X113007096Y-95219859D01*
X113023638Y-95241331D01*
X113046593Y-95262639D01*
X113092505Y-95281653D01*
X113141802Y-95278122D01*
X113188917Y-95251694D01*
X113202207Y-95239072D01*
X113216397Y-95217465D01*
X113224266Y-95187094D01*
X113228726Y-95139770D01*
X113229955Y-95104219D01*
X113223224Y-95031620D01*
X113202567Y-94979642D01*
X113167894Y-94947999D01*
X113127249Y-94932847D01*
X113078777Y-94934123D01*
X113033845Y-94959703D01*
X113023103Y-94969442D01*
X113009548Y-94986480D01*
X113001505Y-95008772D01*
X112997043Y-95042947D01*
X112994228Y-95095638D01*
X112992920Y-95132523D01*
X112857776Y-95132523D01*
X112858583Y-95057351D01*
X112859907Y-95043651D01*
X112878374Y-94955908D01*
X112912540Y-94887793D01*
X112962479Y-94839231D01*
X113028261Y-94810148D01*
X113109961Y-94800471D01*
X113140828Y-94801379D01*
X113204128Y-94812493D01*
X113255889Y-94839021D01*
X113304147Y-94884436D01*
X113311865Y-94893551D01*
X113332681Y-94924248D01*
X113346362Y-94959007D01*
X113353948Y-95003056D01*
X113356479Y-95061621D01*
X113355672Y-95104219D01*
X113354997Y-95139931D01*
X113353373Y-95179310D01*
G36*
X111372605Y-94802424D02*
G01*
X111429926Y-94820434D01*
X111455199Y-94832674D01*
X111467910Y-94833938D01*
X111470792Y-94822798D01*
X111470795Y-94822461D01*
X111477006Y-94811087D01*
X111498428Y-94805256D01*
X111539950Y-94803614D01*
X111609109Y-94803614D01*
X111609109Y-95407179D01*
X111470792Y-95407179D01*
X111470792Y-95199132D01*
X111470697Y-95128879D01*
X111470051Y-95071170D01*
X111468320Y-95030787D01*
X111464974Y-95003615D01*
X111459481Y-94985540D01*
X111451310Y-94972447D01*
X111439928Y-94960221D01*
X111424424Y-94947217D01*
X111379843Y-94929745D01*
X111333047Y-94934873D01*
X111290180Y-94962507D01*
X111277927Y-94975368D01*
X111269132Y-94988384D01*
X111263233Y-95005706D01*
X111259651Y-95031501D01*
X111257809Y-95069939D01*
X111257128Y-95125189D01*
X111257030Y-95201418D01*
X111257030Y-95407179D01*
X111118713Y-95407179D01*
X111118989Y-95183985D01*
X111119008Y-95174044D01*
X111120207Y-95079106D01*
X111123891Y-95005358D01*
X111131006Y-94949214D01*
X111142500Y-94907087D01*
X111159318Y-94875391D01*
X111182409Y-94850541D01*
X111212717Y-94828950D01*
X111244012Y-94814002D01*
X111307037Y-94800421D01*
X111372605Y-94802424D01*
G37*
X111372605Y-94802424D02*
X111429926Y-94820434D01*
X111455199Y-94832674D01*
X111467910Y-94833938D01*
X111470792Y-94822798D01*
X111470795Y-94822461D01*
X111477006Y-94811087D01*
X111498428Y-94805256D01*
X111539950Y-94803614D01*
X111609109Y-94803614D01*
X111609109Y-95407179D01*
X111470792Y-95407179D01*
X111470792Y-95199132D01*
X111470697Y-95128879D01*
X111470051Y-95071170D01*
X111468320Y-95030787D01*
X111464974Y-95003615D01*
X111459481Y-94985540D01*
X111451310Y-94972447D01*
X111439928Y-94960221D01*
X111424424Y-94947217D01*
X111379843Y-94929745D01*
X111333047Y-94934873D01*
X111290180Y-94962507D01*
X111277927Y-94975368D01*
X111269132Y-94988384D01*
X111263233Y-95005706D01*
X111259651Y-95031501D01*
X111257809Y-95069939D01*
X111257128Y-95125189D01*
X111257030Y-95201418D01*
X111257030Y-95407179D01*
X111118713Y-95407179D01*
X111118989Y-95183985D01*
X111119008Y-95174044D01*
X111120207Y-95079106D01*
X111123891Y-95005358D01*
X111131006Y-94949214D01*
X111142500Y-94907087D01*
X111159318Y-94875391D01*
X111182409Y-94850541D01*
X111212717Y-94828950D01*
X111244012Y-94814002D01*
X111307037Y-94800421D01*
X111372605Y-94802424D01*
G36*
X111583960Y-96362822D02*
G01*
X111458218Y-96362822D01*
X111458218Y-96168740D01*
X111458078Y-96123594D01*
X111456649Y-96048823D01*
X111453029Y-95993467D01*
X111446434Y-95953702D01*
X111436079Y-95925700D01*
X111421178Y-95905635D01*
X111400946Y-95889681D01*
X111378859Y-95877792D01*
X111352705Y-95874421D01*
X111315508Y-95881917D01*
X111303555Y-95885038D01*
X111273718Y-95889735D01*
X111252383Y-95883005D01*
X111227655Y-95862177D01*
X111222963Y-95857647D01*
X111197020Y-95829626D01*
X111180291Y-95806843D01*
X111177996Y-95801355D01*
X111182543Y-95781088D01*
X111205602Y-95764884D01*
X111241995Y-95753513D01*
X111286544Y-95747740D01*
X111334072Y-95748334D01*
X111379400Y-95756063D01*
X111417351Y-95771694D01*
X111429381Y-95778993D01*
X111449632Y-95789676D01*
X111457129Y-95787230D01*
X111458218Y-95771647D01*
X111458473Y-95766053D01*
X111464539Y-95753660D01*
X111483356Y-95748020D01*
X111521089Y-95746683D01*
X111583960Y-95746683D01*
X111583960Y-96362822D01*
G37*
X111583960Y-96362822D02*
X111458218Y-96362822D01*
X111458218Y-96168740D01*
X111458078Y-96123594D01*
X111456649Y-96048823D01*
X111453029Y-95993467D01*
X111446434Y-95953702D01*
X111436079Y-95925700D01*
X111421178Y-95905635D01*
X111400946Y-95889681D01*
X111378859Y-95877792D01*
X111352705Y-95874421D01*
X111315508Y-95881917D01*
X111303555Y-95885038D01*
X111273718Y-95889735D01*
X111252383Y-95883005D01*
X111227655Y-95862177D01*
X111222963Y-95857647D01*
X111197020Y-95829626D01*
X111180291Y-95806843D01*
X111177996Y-95801355D01*
X111182543Y-95781088D01*
X111205602Y-95764884D01*
X111241995Y-95753513D01*
X111286544Y-95747740D01*
X111334072Y-95748334D01*
X111379400Y-95756063D01*
X111417351Y-95771694D01*
X111429381Y-95778993D01*
X111449632Y-95789676D01*
X111457129Y-95787230D01*
X111458218Y-95771647D01*
X111458473Y-95766053D01*
X111464539Y-95753660D01*
X111483356Y-95748020D01*
X111521089Y-95746683D01*
X111583960Y-95746683D01*
X111583960Y-96362822D01*
G36*
X112197157Y-96196882D02*
G01*
X112181835Y-96261479D01*
X112147753Y-96310063D01*
X112093218Y-96345072D01*
X112065036Y-96353589D01*
X112016764Y-96360228D01*
X111963978Y-96361813D01*
X111916353Y-96358160D01*
X111883566Y-96349083D01*
X111863652Y-96341813D01*
X111844155Y-96349083D01*
X111837023Y-96353295D01*
X111808557Y-96360126D01*
X111770059Y-96362822D01*
X111709703Y-96362822D01*
X111709703Y-96147111D01*
X111848020Y-96147111D01*
X111852668Y-96183904D01*
X111871015Y-96216269D01*
X111881514Y-96223274D01*
X111918988Y-96234191D01*
X111965773Y-96236917D01*
X112011652Y-96231379D01*
X112046410Y-96217505D01*
X112063726Y-96199161D01*
X112074356Y-96166566D01*
X112064929Y-96140729D01*
X112033764Y-96118263D01*
X111983667Y-96103850D01*
X111917582Y-96098763D01*
X111848020Y-96098763D01*
X111848020Y-96147111D01*
X111709703Y-96147111D01*
X111709703Y-96119484D01*
X111709707Y-96098440D01*
X111709937Y-96019122D01*
X111710797Y-95960154D01*
X111712679Y-95917616D01*
X111715974Y-95887592D01*
X111721073Y-95866163D01*
X111728366Y-95849411D01*
X111738246Y-95833419D01*
X111770023Y-95795948D01*
X111815055Y-95767339D01*
X111874210Y-95751555D01*
X111952161Y-95746703D01*
X111954695Y-95746708D01*
X112008880Y-95749155D01*
X112057380Y-95755256D01*
X112090478Y-95763809D01*
X112099552Y-95768096D01*
X112128433Y-95786248D01*
X112154568Y-95807822D01*
X112171764Y-95827236D01*
X112173825Y-95838909D01*
X112169803Y-95842063D01*
X112125976Y-95875739D01*
X112096671Y-95895600D01*
X112077294Y-95903613D01*
X112063253Y-95901746D01*
X112049957Y-95891965D01*
X112025418Y-95879756D01*
X111984064Y-95871615D01*
X111937326Y-95869503D01*
X111895034Y-95873800D01*
X111867017Y-95884887D01*
X111865543Y-95886236D01*
X111852953Y-95911581D01*
X111848020Y-95949411D01*
X111848020Y-95998169D01*
X111964331Y-95998216D01*
X112017760Y-95999061D01*
X112062735Y-96002740D01*
X112094907Y-96010309D01*
X112120899Y-96022808D01*
X112126948Y-96026647D01*
X112170710Y-96068845D01*
X112193987Y-96124647D01*
X112195955Y-96166566D01*
X112197299Y-96195223D01*
X112197157Y-96196882D01*
G37*
X112197157Y-96196882D02*
X112181835Y-96261479D01*
X112147753Y-96310063D01*
X112093218Y-96345072D01*
X112065036Y-96353589D01*
X112016764Y-96360228D01*
X111963978Y-96361813D01*
X111916353Y-96358160D01*
X111883566Y-96349083D01*
X111863652Y-96341813D01*
X111844155Y-96349083D01*
X111837023Y-96353295D01*
X111808557Y-96360126D01*
X111770059Y-96362822D01*
X111709703Y-96362822D01*
X111709703Y-96147111D01*
X111848020Y-96147111D01*
X111852668Y-96183904D01*
X111871015Y-96216269D01*
X111881514Y-96223274D01*
X111918988Y-96234191D01*
X111965773Y-96236917D01*
X112011652Y-96231379D01*
X112046410Y-96217505D01*
X112063726Y-96199161D01*
X112074356Y-96166566D01*
X112064929Y-96140729D01*
X112033764Y-96118263D01*
X111983667Y-96103850D01*
X111917582Y-96098763D01*
X111848020Y-96098763D01*
X111848020Y-96147111D01*
X111709703Y-96147111D01*
X111709703Y-96119484D01*
X111709707Y-96098440D01*
X111709937Y-96019122D01*
X111710797Y-95960154D01*
X111712679Y-95917616D01*
X111715974Y-95887592D01*
X111721073Y-95866163D01*
X111728366Y-95849411D01*
X111738246Y-95833419D01*
X111770023Y-95795948D01*
X111815055Y-95767339D01*
X111874210Y-95751555D01*
X111952161Y-95746703D01*
X111954695Y-95746708D01*
X112008880Y-95749155D01*
X112057380Y-95755256D01*
X112090478Y-95763809D01*
X112099552Y-95768096D01*
X112128433Y-95786248D01*
X112154568Y-95807822D01*
X112171764Y-95827236D01*
X112173825Y-95838909D01*
X112169803Y-95842063D01*
X112125976Y-95875739D01*
X112096671Y-95895600D01*
X112077294Y-95903613D01*
X112063253Y-95901746D01*
X112049957Y-95891965D01*
X112025418Y-95879756D01*
X111984064Y-95871615D01*
X111937326Y-95869503D01*
X111895034Y-95873800D01*
X111867017Y-95884887D01*
X111865543Y-95886236D01*
X111852953Y-95911581D01*
X111848020Y-95949411D01*
X111848020Y-95998169D01*
X111964331Y-95998216D01*
X112017760Y-95999061D01*
X112062735Y-96002740D01*
X112094907Y-96010309D01*
X112120899Y-96022808D01*
X112126948Y-96026647D01*
X112170710Y-96068845D01*
X112193987Y-96124647D01*
X112195955Y-96166566D01*
X112197299Y-96195223D01*
X112197157Y-96196882D01*
G36*
X112201421Y-95117936D02*
G01*
X112200322Y-95156371D01*
X112187926Y-95240367D01*
X112160608Y-95306595D01*
X112116941Y-95357784D01*
X112055495Y-95396663D01*
X111995888Y-95414812D01*
X111921110Y-95418284D01*
X111845664Y-95404930D01*
X111778366Y-95375425D01*
X111753428Y-95359012D01*
X111725951Y-95337973D01*
X111713414Y-95324129D01*
X111714124Y-95318417D01*
X111728158Y-95298955D01*
X111754533Y-95275376D01*
X111800240Y-95240513D01*
X111853799Y-95267262D01*
X111868282Y-95273882D01*
X111910916Y-95288273D01*
X111946649Y-95294010D01*
X111972998Y-95289282D01*
X112014347Y-95266514D01*
X112049104Y-95231170D01*
X112068983Y-95190273D01*
X112077083Y-95155693D01*
X111697129Y-95155693D01*
X111697199Y-95089679D01*
X111697774Y-95068757D01*
X111701972Y-95023862D01*
X111835445Y-95023862D01*
X111835690Y-95026434D01*
X111842604Y-95034443D01*
X111862141Y-95039364D01*
X111898467Y-95041843D01*
X111955748Y-95042525D01*
X111974575Y-95042517D01*
X112023470Y-95042065D01*
X112052863Y-95040113D01*
X112067115Y-95035558D01*
X112070582Y-95027299D01*
X112067625Y-95014233D01*
X112067173Y-95012752D01*
X112041699Y-94967285D01*
X112001539Y-94935981D01*
X111953651Y-94924327D01*
X111935949Y-94925259D01*
X111903094Y-94936408D01*
X111871575Y-94964763D01*
X111863085Y-94974789D01*
X111843336Y-95003423D01*
X111835445Y-95023862D01*
X111701972Y-95023862D01*
X111702512Y-95018091D01*
X111710459Y-94976166D01*
X111719168Y-94952696D01*
X111749790Y-94901646D01*
X111790799Y-94855283D01*
X111834168Y-94823514D01*
X111846699Y-94817614D01*
X111919661Y-94798046D01*
X111994168Y-94800109D01*
X112064217Y-94822931D01*
X112123807Y-94865639D01*
X112156038Y-94905025D01*
X112182392Y-94960510D01*
X112196482Y-95027299D01*
X112197022Y-95029861D01*
X112201421Y-95117936D01*
G37*
X112201421Y-95117936D02*
X112200322Y-95156371D01*
X112187926Y-95240367D01*
X112160608Y-95306595D01*
X112116941Y-95357784D01*
X112055495Y-95396663D01*
X111995888Y-95414812D01*
X111921110Y-95418284D01*
X111845664Y-95404930D01*
X111778366Y-95375425D01*
X111753428Y-95359012D01*
X111725951Y-95337973D01*
X111713414Y-95324129D01*
X111714124Y-95318417D01*
X111728158Y-95298955D01*
X111754533Y-95275376D01*
X111800240Y-95240513D01*
X111853799Y-95267262D01*
X111868282Y-95273882D01*
X111910916Y-95288273D01*
X111946649Y-95294010D01*
X111972998Y-95289282D01*
X112014347Y-95266514D01*
X112049104Y-95231170D01*
X112068983Y-95190273D01*
X112077083Y-95155693D01*
X111697129Y-95155693D01*
X111697199Y-95089679D01*
X111697774Y-95068757D01*
X111701972Y-95023862D01*
X111835445Y-95023862D01*
X111835690Y-95026434D01*
X111842604Y-95034443D01*
X111862141Y-95039364D01*
X111898467Y-95041843D01*
X111955748Y-95042525D01*
X111974575Y-95042517D01*
X112023470Y-95042065D01*
X112052863Y-95040113D01*
X112067115Y-95035558D01*
X112070582Y-95027299D01*
X112067625Y-95014233D01*
X112067173Y-95012752D01*
X112041699Y-94967285D01*
X112001539Y-94935981D01*
X111953651Y-94924327D01*
X111935949Y-94925259D01*
X111903094Y-94936408D01*
X111871575Y-94964763D01*
X111863085Y-94974789D01*
X111843336Y-95003423D01*
X111835445Y-95023862D01*
X111701972Y-95023862D01*
X111702512Y-95018091D01*
X111710459Y-94976166D01*
X111719168Y-94952696D01*
X111749790Y-94901646D01*
X111790799Y-94855283D01*
X111834168Y-94823514D01*
X111846699Y-94817614D01*
X111919661Y-94798046D01*
X111994168Y-94800109D01*
X112064217Y-94822931D01*
X112123807Y-94865639D01*
X112156038Y-94905025D01*
X112182392Y-94960510D01*
X112196482Y-95027299D01*
X112197022Y-95029861D01*
X112201421Y-95117936D01*
G36*
X108423409Y-94806493D02*
G01*
X108492021Y-94833224D01*
X108550048Y-94877351D01*
X108592907Y-94937958D01*
X108595801Y-94944137D01*
X108614176Y-95004409D01*
X108623357Y-95076407D01*
X108623285Y-95151369D01*
X108613901Y-95220536D01*
X108595149Y-95275149D01*
X108571995Y-95313212D01*
X108521030Y-95367135D01*
X108457306Y-95401411D01*
X108402785Y-95415272D01*
X108319767Y-95416785D01*
X108240326Y-95395882D01*
X108169879Y-95353464D01*
X108124284Y-95315880D01*
X108165351Y-95273510D01*
X108191296Y-95248409D01*
X108214764Y-95234434D01*
X108236524Y-95237511D01*
X108264356Y-95256287D01*
X108275454Y-95263638D01*
X108322337Y-95278683D01*
X108376224Y-95278673D01*
X108426675Y-95263168D01*
X108445672Y-95250716D01*
X108473537Y-95213946D01*
X108487506Y-95159939D01*
X108488405Y-95086331D01*
X108488403Y-95086289D01*
X108478009Y-95020433D01*
X108455114Y-94974772D01*
X108417439Y-94946528D01*
X108362708Y-94932920D01*
X108328241Y-94931090D01*
X108298126Y-94938584D01*
X108267240Y-94960295D01*
X108227272Y-94993926D01*
X108176656Y-94953250D01*
X108158163Y-94937667D01*
X108135065Y-94915340D01*
X108126039Y-94902183D01*
X108129236Y-94896253D01*
X108147646Y-94878048D01*
X108176973Y-94854895D01*
X108199920Y-94839830D01*
X108272774Y-94808880D01*
X108348799Y-94798073D01*
X108423409Y-94806493D01*
G37*
X108423409Y-94806493D02*
X108492021Y-94833224D01*
X108550048Y-94877351D01*
X108592907Y-94937958D01*
X108595801Y-94944137D01*
X108614176Y-95004409D01*
X108623357Y-95076407D01*
X108623285Y-95151369D01*
X108613901Y-95220536D01*
X108595149Y-95275149D01*
X108571995Y-95313212D01*
X108521030Y-95367135D01*
X108457306Y-95401411D01*
X108402785Y-95415272D01*
X108319767Y-95416785D01*
X108240326Y-95395882D01*
X108169879Y-95353464D01*
X108124284Y-95315880D01*
X108165351Y-95273510D01*
X108191296Y-95248409D01*
X108214764Y-95234434D01*
X108236524Y-95237511D01*
X108264356Y-95256287D01*
X108275454Y-95263638D01*
X108322337Y-95278683D01*
X108376224Y-95278673D01*
X108426675Y-95263168D01*
X108445672Y-95250716D01*
X108473537Y-95213946D01*
X108487506Y-95159939D01*
X108488405Y-95086331D01*
X108488403Y-95086289D01*
X108478009Y-95020433D01*
X108455114Y-94974772D01*
X108417439Y-94946528D01*
X108362708Y-94932920D01*
X108328241Y-94931090D01*
X108298126Y-94938584D01*
X108267240Y-94960295D01*
X108227272Y-94993926D01*
X108176656Y-94953250D01*
X108158163Y-94937667D01*
X108135065Y-94915340D01*
X108126039Y-94902183D01*
X108129236Y-94896253D01*
X108147646Y-94878048D01*
X108176973Y-94854895D01*
X108199920Y-94839830D01*
X108272774Y-94808880D01*
X108348799Y-94798073D01*
X108423409Y-94806493D01*
G36*
X110854389Y-90635018D02*
G01*
X110911237Y-90936570D01*
X111121001Y-91023041D01*
X111330764Y-91109512D01*
X111582410Y-90938395D01*
X111632216Y-90904661D01*
X111698244Y-90860381D01*
X111755410Y-90822561D01*
X111800744Y-90793142D01*
X111831280Y-90774067D01*
X111844046Y-90767278D01*
X111851887Y-90772106D01*
X111875325Y-90792339D01*
X111910794Y-90825543D01*
X111955289Y-90868670D01*
X112005805Y-90918670D01*
X112059336Y-90972495D01*
X112112877Y-91027095D01*
X112163423Y-91079423D01*
X112207968Y-91126428D01*
X112243507Y-91165063D01*
X112267034Y-91192278D01*
X112275544Y-91205024D01*
X112273565Y-91210500D01*
X112259857Y-91234927D01*
X112234825Y-91275129D01*
X112200499Y-91327952D01*
X112158907Y-91390247D01*
X112112079Y-91458862D01*
X112086380Y-91496283D01*
X112042173Y-91561432D01*
X112004272Y-91618289D01*
X111974698Y-91663770D01*
X111955472Y-91694793D01*
X111948614Y-91708274D01*
X111948726Y-91709021D01*
X111954776Y-91726110D01*
X111968654Y-91761006D01*
X111988427Y-91809151D01*
X112012160Y-91865986D01*
X112037918Y-91926953D01*
X112063766Y-91987492D01*
X112087771Y-92043047D01*
X112107998Y-92089057D01*
X112122511Y-92120965D01*
X112129377Y-92134212D01*
X112133439Y-92135387D01*
X112158121Y-92140687D01*
X112202111Y-92149467D01*
X112261887Y-92161040D01*
X112333929Y-92174721D01*
X112414716Y-92189823D01*
X112457294Y-92197830D01*
X112535445Y-92213107D01*
X112603775Y-92227215D01*
X112658551Y-92239345D01*
X112696037Y-92248686D01*
X112712500Y-92254427D01*
X112715457Y-92260119D01*
X112720362Y-92287930D01*
X112724216Y-92334250D01*
X112727021Y-92394720D01*
X112728781Y-92464983D01*
X112729499Y-92540680D01*
X112729177Y-92617453D01*
X112727819Y-92690944D01*
X112725428Y-92756794D01*
X112722006Y-92810645D01*
X112717556Y-92848138D01*
X112712082Y-92864916D01*
X112708760Y-92866809D01*
X112683987Y-92874926D01*
X112641011Y-92885666D01*
X112584802Y-92897853D01*
X112520325Y-92910310D01*
X112498570Y-92914277D01*
X112398093Y-92932729D01*
X112319126Y-92947559D01*
X112258934Y-92959380D01*
X112214778Y-92968809D01*
X112183920Y-92976460D01*
X112163625Y-92982948D01*
X112151154Y-92988888D01*
X112143771Y-92994894D01*
X112142913Y-92995902D01*
X112130838Y-93016919D01*
X112112971Y-93055376D01*
X112091042Y-93106761D01*
X112066784Y-93166563D01*
X112041927Y-93230270D01*
X112018205Y-93293371D01*
X111997347Y-93351355D01*
X111981087Y-93399709D01*
X111971156Y-93433922D01*
X111969285Y-93449483D01*
X111970536Y-93451502D01*
X111983486Y-93471028D01*
X112007840Y-93507042D01*
X112041340Y-93556228D01*
X112081727Y-93615267D01*
X112126745Y-93680842D01*
X112139100Y-93698884D01*
X112182545Y-93763599D01*
X112220091Y-93821476D01*
X112249594Y-93869082D01*
X112268914Y-93902985D01*
X112275905Y-93919752D01*
X112274398Y-93924161D01*
X112258695Y-93945882D01*
X112227714Y-93981354D01*
X112183673Y-94028188D01*
X112128790Y-94083996D01*
X112065286Y-94146392D01*
X112028988Y-94181317D01*
X111971595Y-94235711D01*
X111921361Y-94282302D01*
X111880984Y-94318636D01*
X111853161Y-94342261D01*
X111840590Y-94350724D01*
X111831952Y-94347587D01*
X111805360Y-94332747D01*
X111766741Y-94308477D01*
X111721134Y-94277852D01*
X111688707Y-94255503D01*
X111623970Y-94211122D01*
X111554886Y-94163987D01*
X111491787Y-94121155D01*
X111368178Y-94037547D01*
X111264417Y-94093650D01*
X111239984Y-94106599D01*
X111195552Y-94128749D01*
X111161191Y-94144041D01*
X111142828Y-94149743D01*
X111136818Y-94142421D01*
X111121895Y-94114541D01*
X111099852Y-94068575D01*
X111071917Y-94007441D01*
X111039317Y-93934055D01*
X111003276Y-93851335D01*
X110965023Y-93762197D01*
X110925783Y-93669559D01*
X110886783Y-93576337D01*
X110849249Y-93485450D01*
X110814409Y-93399814D01*
X110783488Y-93322345D01*
X110757714Y-93255962D01*
X110738311Y-93203582D01*
X110726508Y-93168121D01*
X110723531Y-93152496D01*
X110723732Y-93152039D01*
X110737601Y-93137595D01*
X110766611Y-93114974D01*
X110804772Y-93088864D01*
X110816817Y-93080892D01*
X110908469Y-93005256D01*
X110984323Y-92915169D01*
X111042581Y-92814381D01*
X111081448Y-92706640D01*
X111099128Y-92595697D01*
X111093826Y-92485303D01*
X111072347Y-92387115D01*
X111033782Y-92287966D01*
X110977562Y-92199512D01*
X110900410Y-92115487D01*
X110870095Y-92088645D01*
X110772094Y-92022510D01*
X110666227Y-91977970D01*
X110555561Y-91954625D01*
X110443164Y-91952078D01*
X110332105Y-91969929D01*
X110225451Y-92007780D01*
X110126270Y-92065232D01*
X110037631Y-92141887D01*
X109962600Y-92237345D01*
X109948175Y-92260985D01*
X109899143Y-92369034D01*
X109873103Y-92481548D01*
X109869372Y-92595614D01*
X109887268Y-92708318D01*
X109926109Y-92816745D01*
X109985214Y-92917982D01*
X110063900Y-93009114D01*
X110161485Y-93087228D01*
X110164654Y-93089333D01*
X110202411Y-93115940D01*
X110230709Y-93138561D01*
X110243634Y-93152496D01*
X110242003Y-93163421D01*
X110231864Y-93195231D01*
X110213884Y-93244534D01*
X110189292Y-93308413D01*
X110159311Y-93383948D01*
X110125170Y-93468223D01*
X110088092Y-93558320D01*
X110049306Y-93651321D01*
X110010036Y-93744308D01*
X109971509Y-93834364D01*
X109934950Y-93918571D01*
X109901586Y-93994010D01*
X109872643Y-94057765D01*
X109849346Y-94106917D01*
X109832923Y-94138549D01*
X109824598Y-94149743D01*
X109817674Y-94148227D01*
X109790477Y-94137331D01*
X109750280Y-94118228D01*
X109703009Y-94093650D01*
X109599248Y-94037547D01*
X109475639Y-94121155D01*
X109439120Y-94145913D01*
X109371194Y-94192171D01*
X109303475Y-94238503D01*
X109246291Y-94277852D01*
X109214732Y-94299297D01*
X109173714Y-94325939D01*
X109143301Y-94344178D01*
X109128446Y-94350941D01*
X109122065Y-94348070D01*
X109098996Y-94330485D01*
X109063433Y-94299523D01*
X109018471Y-94258231D01*
X108967206Y-94209653D01*
X108912733Y-94156835D01*
X108858148Y-94102823D01*
X108806547Y-94050661D01*
X108761024Y-94003396D01*
X108724675Y-93964072D01*
X108700595Y-93935736D01*
X108691881Y-93921432D01*
X108692383Y-93918711D01*
X108702755Y-93896560D01*
X108724912Y-93858235D01*
X108756712Y-93807200D01*
X108796016Y-93746914D01*
X108840681Y-93680842D01*
X108853207Y-93662617D01*
X108897193Y-93598485D01*
X108935937Y-93541789D01*
X108967182Y-93495844D01*
X108988669Y-93463970D01*
X108998140Y-93449483D01*
X108998373Y-93448862D01*
X108995578Y-93431139D01*
X108984903Y-93395235D01*
X108968081Y-93345662D01*
X108946843Y-93286932D01*
X108922921Y-93223556D01*
X108898046Y-93160046D01*
X108873950Y-93100913D01*
X108852365Y-93050669D01*
X108835023Y-93013826D01*
X108823655Y-92994894D01*
X108822516Y-92993719D01*
X108814376Y-92987773D01*
X108800629Y-92981776D01*
X108778537Y-92975114D01*
X108745363Y-92967173D01*
X108698370Y-92957337D01*
X108634820Y-92944991D01*
X108551976Y-92929520D01*
X108447100Y-92910310D01*
X108425348Y-92906267D01*
X108363036Y-92893769D01*
X108310619Y-92881927D01*
X108273066Y-92871917D01*
X108255343Y-92864916D01*
X108252378Y-92859075D01*
X108247435Y-92831016D01*
X108243518Y-92784500D01*
X108240629Y-92723886D01*
X108238773Y-92653532D01*
X108237952Y-92577796D01*
X108238168Y-92501037D01*
X108239426Y-92427612D01*
X108241728Y-92361880D01*
X108245076Y-92308200D01*
X108249474Y-92270930D01*
X108254926Y-92254427D01*
X108260491Y-92251989D01*
X108288178Y-92244305D01*
X108334979Y-92233436D01*
X108397157Y-92220192D01*
X108470979Y-92205384D01*
X108552710Y-92189823D01*
X108597336Y-92181509D01*
X108673824Y-92167092D01*
X108739660Y-92154467D01*
X108791323Y-92144321D01*
X108825293Y-92137341D01*
X108838048Y-92134212D01*
X108838528Y-92133568D01*
X108846651Y-92117181D01*
X108862137Y-92082852D01*
X108883050Y-92035136D01*
X108907455Y-91978586D01*
X108933416Y-91917758D01*
X108958997Y-91857206D01*
X108982262Y-91801485D01*
X109001277Y-91755150D01*
X109014105Y-91722755D01*
X109018812Y-91708855D01*
X109016736Y-91703965D01*
X109002920Y-91680692D01*
X108977860Y-91641519D01*
X108943568Y-91589520D01*
X108902059Y-91527768D01*
X108855346Y-91459336D01*
X108829718Y-91421860D01*
X108785490Y-91356156D01*
X108747570Y-91298492D01*
X108717980Y-91252014D01*
X108698743Y-91219865D01*
X108691881Y-91205190D01*
X108696649Y-91197230D01*
X108716593Y-91173446D01*
X108749313Y-91137451D01*
X108791805Y-91092295D01*
X108841065Y-91041028D01*
X108894091Y-90986701D01*
X108947877Y-90932364D01*
X108999421Y-90881067D01*
X109045720Y-90835859D01*
X109083769Y-90799792D01*
X109110565Y-90775914D01*
X109123105Y-90767278D01*
X109130066Y-90770636D01*
X109155627Y-90786210D01*
X109196874Y-90812715D01*
X109250837Y-90848210D01*
X109314542Y-90890750D01*
X109385016Y-90938395D01*
X109636662Y-91109512D01*
X110056188Y-90936570D01*
X110113036Y-90635018D01*
X110169885Y-90333466D01*
X110797540Y-90333466D01*
X110854389Y-90635018D01*
G37*
X110854389Y-90635018D02*
X110911237Y-90936570D01*
X111121001Y-91023041D01*
X111330764Y-91109512D01*
X111582410Y-90938395D01*
X111632216Y-90904661D01*
X111698244Y-90860381D01*
X111755410Y-90822561D01*
X111800744Y-90793142D01*
X111831280Y-90774067D01*
X111844046Y-90767278D01*
X111851887Y-90772106D01*
X111875325Y-90792339D01*
X111910794Y-90825543D01*
X111955289Y-90868670D01*
X112005805Y-90918670D01*
X112059336Y-90972495D01*
X112112877Y-91027095D01*
X112163423Y-91079423D01*
X112207968Y-91126428D01*
X112243507Y-91165063D01*
X112267034Y-91192278D01*
X112275544Y-91205024D01*
X112273565Y-91210500D01*
X112259857Y-91234927D01*
X112234825Y-91275129D01*
X112200499Y-91327952D01*
X112158907Y-91390247D01*
X112112079Y-91458862D01*
X112086380Y-91496283D01*
X112042173Y-91561432D01*
X112004272Y-91618289D01*
X111974698Y-91663770D01*
X111955472Y-91694793D01*
X111948614Y-91708274D01*
X111948726Y-91709021D01*
X111954776Y-91726110D01*
X111968654Y-91761006D01*
X111988427Y-91809151D01*
X112012160Y-91865986D01*
X112037918Y-91926953D01*
X112063766Y-91987492D01*
X112087771Y-92043047D01*
X112107998Y-92089057D01*
X112122511Y-92120965D01*
X112129377Y-92134212D01*
X112133439Y-92135387D01*
X112158121Y-92140687D01*
X112202111Y-92149467D01*
X112261887Y-92161040D01*
X112333929Y-92174721D01*
X112414716Y-92189823D01*
X112457294Y-92197830D01*
X112535445Y-92213107D01*
X112603775Y-92227215D01*
X112658551Y-92239345D01*
X112696037Y-92248686D01*
X112712500Y-92254427D01*
X112715457Y-92260119D01*
X112720362Y-92287930D01*
X112724216Y-92334250D01*
X112727021Y-92394720D01*
X112728781Y-92464983D01*
X112729499Y-92540680D01*
X112729177Y-92617453D01*
X112727819Y-92690944D01*
X112725428Y-92756794D01*
X112722006Y-92810645D01*
X112717556Y-92848138D01*
X112712082Y-92864916D01*
X112708760Y-92866809D01*
X112683987Y-92874926D01*
X112641011Y-92885666D01*
X112584802Y-92897853D01*
X112520325Y-92910310D01*
X112498570Y-92914277D01*
X112398093Y-92932729D01*
X112319126Y-92947559D01*
X112258934Y-92959380D01*
X112214778Y-92968809D01*
X112183920Y-92976460D01*
X112163625Y-92982948D01*
X112151154Y-92988888D01*
X112143771Y-92994894D01*
X112142913Y-92995902D01*
X112130838Y-93016919D01*
X112112971Y-93055376D01*
X112091042Y-93106761D01*
X112066784Y-93166563D01*
X112041927Y-93230270D01*
X112018205Y-93293371D01*
X111997347Y-93351355D01*
X111981087Y-93399709D01*
X111971156Y-93433922D01*
X111969285Y-93449483D01*
X111970536Y-93451502D01*
X111983486Y-93471028D01*
X112007840Y-93507042D01*
X112041340Y-93556228D01*
X112081727Y-93615267D01*
X112126745Y-93680842D01*
X112139100Y-93698884D01*
X112182545Y-93763599D01*
X112220091Y-93821476D01*
X112249594Y-93869082D01*
X112268914Y-93902985D01*
X112275905Y-93919752D01*
X112274398Y-93924161D01*
X112258695Y-93945882D01*
X112227714Y-93981354D01*
X112183673Y-94028188D01*
X112128790Y-94083996D01*
X112065286Y-94146392D01*
X112028988Y-94181317D01*
X111971595Y-94235711D01*
X111921361Y-94282302D01*
X111880984Y-94318636D01*
X111853161Y-94342261D01*
X111840590Y-94350724D01*
X111831952Y-94347587D01*
X111805360Y-94332747D01*
X111766741Y-94308477D01*
X111721134Y-94277852D01*
X111688707Y-94255503D01*
X111623970Y-94211122D01*
X111554886Y-94163987D01*
X111491787Y-94121155D01*
X111368178Y-94037547D01*
X111264417Y-94093650D01*
X111239984Y-94106599D01*
X111195552Y-94128749D01*
X111161191Y-94144041D01*
X111142828Y-94149743D01*
X111136818Y-94142421D01*
X111121895Y-94114541D01*
X111099852Y-94068575D01*
X111071917Y-94007441D01*
X111039317Y-93934055D01*
X111003276Y-93851335D01*
X110965023Y-93762197D01*
X110925783Y-93669559D01*
X110886783Y-93576337D01*
X110849249Y-93485450D01*
X110814409Y-93399814D01*
X110783488Y-93322345D01*
X110757714Y-93255962D01*
X110738311Y-93203582D01*
X110726508Y-93168121D01*
X110723531Y-93152496D01*
X110723732Y-93152039D01*
X110737601Y-93137595D01*
X110766611Y-93114974D01*
X110804772Y-93088864D01*
X110816817Y-93080892D01*
X110908469Y-93005256D01*
X110984323Y-92915169D01*
X111042581Y-92814381D01*
X111081448Y-92706640D01*
X111099128Y-92595697D01*
X111093826Y-92485303D01*
X111072347Y-92387115D01*
X111033782Y-92287966D01*
X110977562Y-92199512D01*
X110900410Y-92115487D01*
X110870095Y-92088645D01*
X110772094Y-92022510D01*
X110666227Y-91977970D01*
X110555561Y-91954625D01*
X110443164Y-91952078D01*
X110332105Y-91969929D01*
X110225451Y-92007780D01*
X110126270Y-92065232D01*
X110037631Y-92141887D01*
X109962600Y-92237345D01*
X109948175Y-92260985D01*
X109899143Y-92369034D01*
X109873103Y-92481548D01*
X109869372Y-92595614D01*
X109887268Y-92708318D01*
X109926109Y-92816745D01*
X109985214Y-92917982D01*
X110063900Y-93009114D01*
X110161485Y-93087228D01*
X110164654Y-93089333D01*
X110202411Y-93115940D01*
X110230709Y-93138561D01*
X110243634Y-93152496D01*
X110242003Y-93163421D01*
X110231864Y-93195231D01*
X110213884Y-93244534D01*
X110189292Y-93308413D01*
X110159311Y-93383948D01*
X110125170Y-93468223D01*
X110088092Y-93558320D01*
X110049306Y-93651321D01*
X110010036Y-93744308D01*
X109971509Y-93834364D01*
X109934950Y-93918571D01*
X109901586Y-93994010D01*
X109872643Y-94057765D01*
X109849346Y-94106917D01*
X109832923Y-94138549D01*
X109824598Y-94149743D01*
X109817674Y-94148227D01*
X109790477Y-94137331D01*
X109750280Y-94118228D01*
X109703009Y-94093650D01*
X109599248Y-94037547D01*
X109475639Y-94121155D01*
X109439120Y-94145913D01*
X109371194Y-94192171D01*
X109303475Y-94238503D01*
X109246291Y-94277852D01*
X109214732Y-94299297D01*
X109173714Y-94325939D01*
X109143301Y-94344178D01*
X109128446Y-94350941D01*
X109122065Y-94348070D01*
X109098996Y-94330485D01*
X109063433Y-94299523D01*
X109018471Y-94258231D01*
X108967206Y-94209653D01*
X108912733Y-94156835D01*
X108858148Y-94102823D01*
X108806547Y-94050661D01*
X108761024Y-94003396D01*
X108724675Y-93964072D01*
X108700595Y-93935736D01*
X108691881Y-93921432D01*
X108692383Y-93918711D01*
X108702755Y-93896560D01*
X108724912Y-93858235D01*
X108756712Y-93807200D01*
X108796016Y-93746914D01*
X108840681Y-93680842D01*
X108853207Y-93662617D01*
X108897193Y-93598485D01*
X108935937Y-93541789D01*
X108967182Y-93495844D01*
X108988669Y-93463970D01*
X108998140Y-93449483D01*
X108998373Y-93448862D01*
X108995578Y-93431139D01*
X108984903Y-93395235D01*
X108968081Y-93345662D01*
X108946843Y-93286932D01*
X108922921Y-93223556D01*
X108898046Y-93160046D01*
X108873950Y-93100913D01*
X108852365Y-93050669D01*
X108835023Y-93013826D01*
X108823655Y-92994894D01*
X108822516Y-92993719D01*
X108814376Y-92987773D01*
X108800629Y-92981776D01*
X108778537Y-92975114D01*
X108745363Y-92967173D01*
X108698370Y-92957337D01*
X108634820Y-92944991D01*
X108551976Y-92929520D01*
X108447100Y-92910310D01*
X108425348Y-92906267D01*
X108363036Y-92893769D01*
X108310619Y-92881927D01*
X108273066Y-92871917D01*
X108255343Y-92864916D01*
X108252378Y-92859075D01*
X108247435Y-92831016D01*
X108243518Y-92784500D01*
X108240629Y-92723886D01*
X108238773Y-92653532D01*
X108237952Y-92577796D01*
X108238168Y-92501037D01*
X108239426Y-92427612D01*
X108241728Y-92361880D01*
X108245076Y-92308200D01*
X108249474Y-92270930D01*
X108254926Y-92254427D01*
X108260491Y-92251989D01*
X108288178Y-92244305D01*
X108334979Y-92233436D01*
X108397157Y-92220192D01*
X108470979Y-92205384D01*
X108552710Y-92189823D01*
X108597336Y-92181509D01*
X108673824Y-92167092D01*
X108739660Y-92154467D01*
X108791323Y-92144321D01*
X108825293Y-92137341D01*
X108838048Y-92134212D01*
X108838528Y-92133568D01*
X108846651Y-92117181D01*
X108862137Y-92082852D01*
X108883050Y-92035136D01*
X108907455Y-91978586D01*
X108933416Y-91917758D01*
X108958997Y-91857206D01*
X108982262Y-91801485D01*
X109001277Y-91755150D01*
X109014105Y-91722755D01*
X109018812Y-91708855D01*
X109016736Y-91703965D01*
X109002920Y-91680692D01*
X108977860Y-91641519D01*
X108943568Y-91589520D01*
X108902059Y-91527768D01*
X108855346Y-91459336D01*
X108829718Y-91421860D01*
X108785490Y-91356156D01*
X108747570Y-91298492D01*
X108717980Y-91252014D01*
X108698743Y-91219865D01*
X108691881Y-91205190D01*
X108696649Y-91197230D01*
X108716593Y-91173446D01*
X108749313Y-91137451D01*
X108791805Y-91092295D01*
X108841065Y-91041028D01*
X108894091Y-90986701D01*
X108947877Y-90932364D01*
X108999421Y-90881067D01*
X109045720Y-90835859D01*
X109083769Y-90799792D01*
X109110565Y-90775914D01*
X109123105Y-90767278D01*
X109130066Y-90770636D01*
X109155627Y-90786210D01*
X109196874Y-90812715D01*
X109250837Y-90848210D01*
X109314542Y-90890750D01*
X109385016Y-90938395D01*
X109636662Y-91109512D01*
X110056188Y-90936570D01*
X110113036Y-90635018D01*
X110169885Y-90333466D01*
X110797540Y-90333466D01*
X110854389Y-90635018D01*
G36*
X110219349Y-95188565D02*
G01*
X110203844Y-95264538D01*
X110176110Y-95322511D01*
X110133898Y-95366300D01*
X110074960Y-95399722D01*
X110052076Y-95407676D01*
X109992812Y-95417601D01*
X109930447Y-95417331D01*
X109877823Y-95406430D01*
X109876789Y-95406034D01*
X109834381Y-95381087D01*
X109791537Y-95342468D01*
X109755986Y-95298306D01*
X109735459Y-95256727D01*
X109729374Y-95226334D01*
X109724164Y-95169429D01*
X109723291Y-95118705D01*
X109849976Y-95118705D01*
X109857549Y-95179545D01*
X109875341Y-95229538D01*
X109902296Y-95262204D01*
X109912513Y-95267812D01*
X109951473Y-95278007D01*
X109996536Y-95280104D01*
X110034448Y-95273020D01*
X110049244Y-95262861D01*
X110070014Y-95227334D01*
X110083083Y-95171732D01*
X110087624Y-95098766D01*
X110087551Y-95077762D01*
X110085974Y-95035203D01*
X110080728Y-95007439D01*
X110069723Y-94986925D01*
X110050868Y-94966112D01*
X110014989Y-94940887D01*
X109968280Y-94930573D01*
X109923151Y-94940396D01*
X109885680Y-94968805D01*
X109861943Y-95014253D01*
X109853675Y-95053497D01*
X109849976Y-95118705D01*
X109723291Y-95118705D01*
X109723049Y-95104621D01*
X109725844Y-95040116D01*
X109732366Y-94984121D01*
X109742432Y-94944842D01*
X109765877Y-94900372D01*
X109815637Y-94845692D01*
X109879238Y-94811055D01*
X109954790Y-94797345D01*
X110040399Y-94805448D01*
X110054644Y-94808899D01*
X110120982Y-94838664D01*
X110170971Y-94887530D01*
X110204612Y-94955501D01*
X110221906Y-95042580D01*
X110222410Y-95098766D01*
X110222857Y-95148771D01*
X110219349Y-95188565D01*
G37*
X110219349Y-95188565D02*
X110203844Y-95264538D01*
X110176110Y-95322511D01*
X110133898Y-95366300D01*
X110074960Y-95399722D01*
X110052076Y-95407676D01*
X109992812Y-95417601D01*
X109930447Y-95417331D01*
X109877823Y-95406430D01*
X109876789Y-95406034D01*
X109834381Y-95381087D01*
X109791537Y-95342468D01*
X109755986Y-95298306D01*
X109735459Y-95256727D01*
X109729374Y-95226334D01*
X109724164Y-95169429D01*
X109723291Y-95118705D01*
X109849976Y-95118705D01*
X109857549Y-95179545D01*
X109875341Y-95229538D01*
X109902296Y-95262204D01*
X109912513Y-95267812D01*
X109951473Y-95278007D01*
X109996536Y-95280104D01*
X110034448Y-95273020D01*
X110049244Y-95262861D01*
X110070014Y-95227334D01*
X110083083Y-95171732D01*
X110087624Y-95098766D01*
X110087551Y-95077762D01*
X110085974Y-95035203D01*
X110080728Y-95007439D01*
X110069723Y-94986925D01*
X110050868Y-94966112D01*
X110014989Y-94940887D01*
X109968280Y-94930573D01*
X109923151Y-94940396D01*
X109885680Y-94968805D01*
X109861943Y-95014253D01*
X109853675Y-95053497D01*
X109849976Y-95118705D01*
X109723291Y-95118705D01*
X109723049Y-95104621D01*
X109725844Y-95040116D01*
X109732366Y-94984121D01*
X109742432Y-94944842D01*
X109765877Y-94900372D01*
X109815637Y-94845692D01*
X109879238Y-94811055D01*
X109954790Y-94797345D01*
X110040399Y-94805448D01*
X110054644Y-94808899D01*
X110120982Y-94838664D01*
X110170971Y-94887530D01*
X110204612Y-94955501D01*
X110221906Y-95042580D01*
X110222410Y-95098766D01*
X110222857Y-95148771D01*
X110219349Y-95188565D01*
G36*
X108960265Y-95754965D02*
G01*
X108998255Y-95772745D01*
X109031386Y-95798806D01*
X109031386Y-95772745D01*
X109032211Y-95762849D01*
X109039893Y-95752358D01*
X109060667Y-95747725D01*
X109100544Y-95746683D01*
X109169703Y-95746683D01*
X109169703Y-96362822D01*
X109031386Y-96362822D01*
X109031386Y-96162226D01*
X109031369Y-96150710D01*
X109030189Y-96069758D01*
X109027294Y-96003817D01*
X109022888Y-95956258D01*
X109017181Y-95930452D01*
X109011940Y-95920710D01*
X108979676Y-95890156D01*
X108935730Y-95876631D01*
X108887743Y-95882941D01*
X108875973Y-95887217D01*
X108850898Y-95894776D01*
X108833762Y-95892428D01*
X108816518Y-95877064D01*
X108791124Y-95845571D01*
X108749936Y-95793568D01*
X108778886Y-95770125D01*
X108806405Y-95756015D01*
X108854745Y-95746486D01*
X108909230Y-95746174D01*
X108960265Y-95754965D01*
G37*
X108960265Y-95754965D02*
X108998255Y-95772745D01*
X109031386Y-95798806D01*
X109031386Y-95772745D01*
X109032211Y-95762849D01*
X109039893Y-95752358D01*
X109060667Y-95747725D01*
X109100544Y-95746683D01*
X109169703Y-95746683D01*
X109169703Y-96362822D01*
X109031386Y-96362822D01*
X109031386Y-96162226D01*
X109031369Y-96150710D01*
X109030189Y-96069758D01*
X109027294Y-96003817D01*
X109022888Y-95956258D01*
X109017181Y-95930452D01*
X109011940Y-95920710D01*
X108979676Y-95890156D01*
X108935730Y-95876631D01*
X108887743Y-95882941D01*
X108875973Y-95887217D01*
X108850898Y-95894776D01*
X108833762Y-95892428D01*
X108816518Y-95877064D01*
X108791124Y-95845571D01*
X108749936Y-95793568D01*
X108778886Y-95770125D01*
X108806405Y-95756015D01*
X108854745Y-95746486D01*
X108909230Y-95746174D01*
X108960265Y-95754965D01*
G36*
X109270297Y-94999342D02*
G01*
X109271357Y-95087394D01*
X109275509Y-95158510D01*
X109283921Y-95210199D01*
X109297757Y-95245360D01*
X109318182Y-95266889D01*
X109346364Y-95277682D01*
X109383465Y-95280636D01*
X109418890Y-95278000D01*
X109447500Y-95267679D01*
X109468296Y-95246772D01*
X109482442Y-95212381D01*
X109491103Y-95161610D01*
X109495445Y-95091563D01*
X109496633Y-94999342D01*
X109496633Y-94803614D01*
X109622376Y-94803614D01*
X109622376Y-95039578D01*
X109622160Y-95102561D01*
X109620484Y-95184007D01*
X109616277Y-95246121D01*
X109608521Y-95292458D01*
X109596196Y-95326573D01*
X109578285Y-95352022D01*
X109553767Y-95372362D01*
X109521623Y-95391147D01*
X109454125Y-95414928D01*
X109383681Y-95416480D01*
X109317264Y-95394580D01*
X109288286Y-95380383D01*
X109273909Y-95378261D01*
X109270297Y-95388293D01*
X109264299Y-95399556D01*
X109242830Y-95405489D01*
X109201138Y-95407179D01*
X109131980Y-95407179D01*
X109131980Y-94803614D01*
X109270297Y-94803614D01*
X109270297Y-94999342D01*
G37*
X109270297Y-94999342D02*
X109271357Y-95087394D01*
X109275509Y-95158510D01*
X109283921Y-95210199D01*
X109297757Y-95245360D01*
X109318182Y-95266889D01*
X109346364Y-95277682D01*
X109383465Y-95280636D01*
X109418890Y-95278000D01*
X109447500Y-95267679D01*
X109468296Y-95246772D01*
X109482442Y-95212381D01*
X109491103Y-95161610D01*
X109495445Y-95091563D01*
X109496633Y-94999342D01*
X109496633Y-94803614D01*
X109622376Y-94803614D01*
X109622376Y-95039578D01*
X109622160Y-95102561D01*
X109620484Y-95184007D01*
X109616277Y-95246121D01*
X109608521Y-95292458D01*
X109596196Y-95326573D01*
X109578285Y-95352022D01*
X109553767Y-95372362D01*
X109521623Y-95391147D01*
X109454125Y-95414928D01*
X109383681Y-95416480D01*
X109317264Y-95394580D01*
X109288286Y-95380383D01*
X109273909Y-95378261D01*
X109270297Y-95388293D01*
X109264299Y-95399556D01*
X109242830Y-95405489D01*
X109201138Y-95407179D01*
X109131980Y-95407179D01*
X109131980Y-94803614D01*
X109270297Y-94803614D01*
X109270297Y-94999342D01*
G36*
X110588874Y-94803207D02*
G01*
X110661495Y-94821408D01*
X110714546Y-94855144D01*
X110748329Y-94904642D01*
X110763147Y-94970126D01*
X110760147Y-95032820D01*
X110738493Y-95085699D01*
X110696967Y-95124796D01*
X110634736Y-95150873D01*
X110550969Y-95164695D01*
X110496540Y-95171940D01*
X110446860Y-95187615D01*
X110421211Y-95210314D01*
X110419662Y-95239998D01*
X110429984Y-95258507D01*
X110461951Y-95280443D01*
X110507395Y-95290818D01*
X110560649Y-95289399D01*
X110616048Y-95275952D01*
X110667928Y-95250243D01*
X110719653Y-95216013D01*
X110765148Y-95262049D01*
X110810643Y-95308084D01*
X110772921Y-95338876D01*
X110758253Y-95349574D01*
X110716983Y-95373880D01*
X110672327Y-95394825D01*
X110636984Y-95406845D01*
X110585234Y-95415552D01*
X110521435Y-95415667D01*
X110443200Y-95406081D01*
X110372722Y-95381783D01*
X110322836Y-95343188D01*
X110293423Y-95290198D01*
X110284365Y-95222718D01*
X110290921Y-95163354D01*
X110311970Y-95114752D01*
X110349864Y-95079946D01*
X110407004Y-95056798D01*
X110485785Y-95043170D01*
X110494834Y-95042183D01*
X110543885Y-95035892D01*
X110583675Y-95029309D01*
X110606312Y-95023708D01*
X110613866Y-95019197D01*
X110626637Y-94995941D01*
X110624563Y-94966171D01*
X110607495Y-94940327D01*
X110598533Y-94934691D01*
X110561188Y-94925660D01*
X110512950Y-94926267D01*
X110462650Y-94935878D01*
X110419115Y-94953858D01*
X110373372Y-94980847D01*
X110337890Y-94939384D01*
X110329280Y-94928850D01*
X110309883Y-94900632D01*
X110301897Y-94881508D01*
X110310283Y-94869781D01*
X110336226Y-94851476D01*
X110373688Y-94831777D01*
X110378966Y-94829370D01*
X110428366Y-94810482D01*
X110475983Y-94801452D01*
X110535072Y-94799639D01*
X110588874Y-94803207D01*
G37*
X110588874Y-94803207D02*
X110661495Y-94821408D01*
X110714546Y-94855144D01*
X110748329Y-94904642D01*
X110763147Y-94970126D01*
X110760147Y-95032820D01*
X110738493Y-95085699D01*
X110696967Y-95124796D01*
X110634736Y-95150873D01*
X110550969Y-95164695D01*
X110496540Y-95171940D01*
X110446860Y-95187615D01*
X110421211Y-95210314D01*
X110419662Y-95239998D01*
X110429984Y-95258507D01*
X110461951Y-95280443D01*
X110507395Y-95290818D01*
X110560649Y-95289399D01*
X110616048Y-95275952D01*
X110667928Y-95250243D01*
X110719653Y-95216013D01*
X110765148Y-95262049D01*
X110810643Y-95308084D01*
X110772921Y-95338876D01*
X110758253Y-95349574D01*
X110716983Y-95373880D01*
X110672327Y-95394825D01*
X110636984Y-95406845D01*
X110585234Y-95415552D01*
X110521435Y-95415667D01*
X110443200Y-95406081D01*
X110372722Y-95381783D01*
X110322836Y-95343188D01*
X110293423Y-95290198D01*
X110284365Y-95222718D01*
X110290921Y-95163354D01*
X110311970Y-95114752D01*
X110349864Y-95079946D01*
X110407004Y-95056798D01*
X110485785Y-95043170D01*
X110494834Y-95042183D01*
X110543885Y-95035892D01*
X110583675Y-95029309D01*
X110606312Y-95023708D01*
X110613866Y-95019197D01*
X110626637Y-94995941D01*
X110624563Y-94966171D01*
X110607495Y-94940327D01*
X110598533Y-94934691D01*
X110561188Y-94925660D01*
X110512950Y-94926267D01*
X110462650Y-94935878D01*
X110419115Y-94953858D01*
X110373372Y-94980847D01*
X110337890Y-94939384D01*
X110329280Y-94928850D01*
X110309883Y-94900632D01*
X110301897Y-94881508D01*
X110310283Y-94869781D01*
X110336226Y-94851476D01*
X110373688Y-94831777D01*
X110378966Y-94829370D01*
X110428366Y-94810482D01*
X110475983Y-94801452D01*
X110535072Y-94799639D01*
X110588874Y-94803207D01*
G36*
X110322997Y-95944130D02*
G01*
X110339997Y-95994850D01*
X110360107Y-96050997D01*
X110376899Y-96093532D01*
X110388986Y-96118990D01*
X110394980Y-96123903D01*
X110396426Y-96119630D01*
X110404254Y-96093422D01*
X110416723Y-96049649D01*
X110432447Y-95993211D01*
X110450043Y-95929010D01*
X110497914Y-95752971D01*
X110571007Y-95749152D01*
X110577177Y-95748846D01*
X110616592Y-95748441D01*
X110635533Y-95752487D01*
X110637945Y-95761726D01*
X110634898Y-95770749D01*
X110624874Y-95801632D01*
X110609180Y-95850544D01*
X110588934Y-95913987D01*
X110565256Y-95988462D01*
X110539263Y-96070471D01*
X110446736Y-96362822D01*
X110330993Y-96362822D01*
X110276457Y-96177352D01*
X110266386Y-96143294D01*
X110247775Y-96081378D01*
X110231872Y-96029787D01*
X110220109Y-95993130D01*
X110213918Y-95976018D01*
X110212154Y-95974741D01*
X110203571Y-95985779D01*
X110191316Y-96014969D01*
X110177426Y-96057750D01*
X110176692Y-96060263D01*
X110158096Y-96123400D01*
X110136818Y-96194889D01*
X110117321Y-96259734D01*
X110085705Y-96364122D01*
X110027402Y-96360328D01*
X109969098Y-96356535D01*
X109915098Y-96186782D01*
X109891390Y-96112193D01*
X109864833Y-96028539D01*
X109839404Y-95948342D01*
X109818354Y-95881857D01*
X109775609Y-95746683D01*
X109918612Y-95746683D01*
X109953274Y-95875570D01*
X109962488Y-95909625D01*
X109979915Y-95973115D01*
X109996054Y-96030874D01*
X110008322Y-96073614D01*
X110028709Y-96142773D01*
X110158745Y-95752971D01*
X110208476Y-95749237D01*
X110258206Y-95745504D01*
X110322997Y-95944130D01*
G37*
X110322997Y-95944130D02*
X110339997Y-95994850D01*
X110360107Y-96050997D01*
X110376899Y-96093532D01*
X110388986Y-96118990D01*
X110394980Y-96123903D01*
X110396426Y-96119630D01*
X110404254Y-96093422D01*
X110416723Y-96049649D01*
X110432447Y-95993211D01*
X110450043Y-95929010D01*
X110497914Y-95752971D01*
X110571007Y-95749152D01*
X110577177Y-95748846D01*
X110616592Y-95748441D01*
X110635533Y-95752487D01*
X110637945Y-95761726D01*
X110634898Y-95770749D01*
X110624874Y-95801632D01*
X110609180Y-95850544D01*
X110588934Y-95913987D01*
X110565256Y-95988462D01*
X110539263Y-96070471D01*
X110446736Y-96362822D01*
X110330993Y-96362822D01*
X110276457Y-96177352D01*
X110266386Y-96143294D01*
X110247775Y-96081378D01*
X110231872Y-96029787D01*
X110220109Y-95993130D01*
X110213918Y-95976018D01*
X110212154Y-95974741D01*
X110203571Y-95985779D01*
X110191316Y-96014969D01*
X110177426Y-96057750D01*
X110176692Y-96060263D01*
X110158096Y-96123400D01*
X110136818Y-96194889D01*
X110117321Y-96259734D01*
X110085705Y-96364122D01*
X110027402Y-96360328D01*
X109969098Y-96356535D01*
X109915098Y-96186782D01*
X109891390Y-96112193D01*
X109864833Y-96028539D01*
X109839404Y-95948342D01*
X109818354Y-95881857D01*
X109775609Y-95746683D01*
X109918612Y-95746683D01*
X109953274Y-95875570D01*
X109962488Y-95909625D01*
X109979915Y-95973115D01*
X109996054Y-96030874D01*
X110008322Y-96073614D01*
X110028709Y-96142773D01*
X110158745Y-95752971D01*
X110208476Y-95749237D01*
X110258206Y-95745504D01*
X110322997Y-95944130D01*
G36*
X108752718Y-96101692D02*
G01*
X108737827Y-96191459D01*
X108707185Y-96262045D01*
X108660524Y-96313952D01*
X108597574Y-96347686D01*
X108577235Y-96353647D01*
X108504612Y-96361971D01*
X108427928Y-96354946D01*
X108358663Y-96333265D01*
X108334262Y-96320959D01*
X108299275Y-96299879D01*
X108278072Y-96282534D01*
X108274942Y-96278571D01*
X108269085Y-96264077D01*
X108277524Y-96248321D01*
X108303221Y-96224460D01*
X108315622Y-96214072D01*
X108340052Y-96195063D01*
X108352861Y-96187293D01*
X108356530Y-96188094D01*
X108377561Y-96196745D01*
X108408960Y-96211931D01*
X108419197Y-96216926D01*
X108479590Y-96235475D01*
X108532057Y-96230694D01*
X108578065Y-96202500D01*
X108583419Y-96197291D01*
X108609013Y-96164659D01*
X108623637Y-96133342D01*
X108631736Y-96098763D01*
X108251782Y-96098763D01*
X108251852Y-96032748D01*
X108251892Y-96026182D01*
X108257022Y-95973218D01*
X108390099Y-95973218D01*
X108391670Y-95984203D01*
X108399738Y-95991773D01*
X108418967Y-95995975D01*
X108454019Y-95997783D01*
X108509554Y-95998169D01*
X108540429Y-95997768D01*
X108586002Y-95995429D01*
X108617348Y-95991465D01*
X108629010Y-95986413D01*
X108619064Y-95944827D01*
X108589947Y-95906013D01*
X108547952Y-95879086D01*
X108499440Y-95869772D01*
X108463723Y-95880272D01*
X108428020Y-95905940D01*
X108400879Y-95939381D01*
X108390099Y-95973218D01*
X108257022Y-95973218D01*
X108259758Y-95944965D01*
X108282655Y-95878895D01*
X108322607Y-95821940D01*
X108346979Y-95797848D01*
X108397315Y-95765597D01*
X108457419Y-95749970D01*
X108533338Y-95748871D01*
X108570010Y-95753179D01*
X108637703Y-95775549D01*
X108689530Y-95816263D01*
X108725945Y-95875949D01*
X108747401Y-95955236D01*
X108749579Y-95986413D01*
X108754353Y-96054753D01*
X108752718Y-96101692D01*
G37*
X108752718Y-96101692D02*
X108737827Y-96191459D01*
X108707185Y-96262045D01*
X108660524Y-96313952D01*
X108597574Y-96347686D01*
X108577235Y-96353647D01*
X108504612Y-96361971D01*
X108427928Y-96354946D01*
X108358663Y-96333265D01*
X108334262Y-96320959D01*
X108299275Y-96299879D01*
X108278072Y-96282534D01*
X108274942Y-96278571D01*
X108269085Y-96264077D01*
X108277524Y-96248321D01*
X108303221Y-96224460D01*
X108315622Y-96214072D01*
X108340052Y-96195063D01*
X108352861Y-96187293D01*
X108356530Y-96188094D01*
X108377561Y-96196745D01*
X108408960Y-96211931D01*
X108419197Y-96216926D01*
X108479590Y-96235475D01*
X108532057Y-96230694D01*
X108578065Y-96202500D01*
X108583419Y-96197291D01*
X108609013Y-96164659D01*
X108623637Y-96133342D01*
X108631736Y-96098763D01*
X108251782Y-96098763D01*
X108251852Y-96032748D01*
X108251892Y-96026182D01*
X108257022Y-95973218D01*
X108390099Y-95973218D01*
X108391670Y-95984203D01*
X108399738Y-95991773D01*
X108418967Y-95995975D01*
X108454019Y-95997783D01*
X108509554Y-95998169D01*
X108540429Y-95997768D01*
X108586002Y-95995429D01*
X108617348Y-95991465D01*
X108629010Y-95986413D01*
X108619064Y-95944827D01*
X108589947Y-95906013D01*
X108547952Y-95879086D01*
X108499440Y-95869772D01*
X108463723Y-95880272D01*
X108428020Y-95905940D01*
X108400879Y-95939381D01*
X108390099Y-95973218D01*
X108257022Y-95973218D01*
X108259758Y-95944965D01*
X108282655Y-95878895D01*
X108322607Y-95821940D01*
X108346979Y-95797848D01*
X108397315Y-95765597D01*
X108457419Y-95749970D01*
X108533338Y-95748871D01*
X108570010Y-95753179D01*
X108637703Y-95775549D01*
X108689530Y-95816263D01*
X108725945Y-95875949D01*
X108747401Y-95955236D01*
X108749579Y-95986413D01*
X108754353Y-96054753D01*
X108752718Y-96101692D01*
G36*
X108777128Y-94798945D02*
G01*
X108807954Y-94808568D01*
X108845916Y-94824563D01*
X108864296Y-94833159D01*
X108877561Y-94834713D01*
X108880495Y-94822798D01*
X108880498Y-94822461D01*
X108886709Y-94811087D01*
X108908131Y-94805256D01*
X108949653Y-94803614D01*
X109018812Y-94803614D01*
X109018812Y-95407179D01*
X108880495Y-95407179D01*
X108880495Y-94991027D01*
X108846110Y-94959161D01*
X108835368Y-94950104D01*
X108803370Y-94934630D01*
X108763965Y-94934010D01*
X108710312Y-94947664D01*
X108692225Y-94948529D01*
X108671008Y-94935283D01*
X108642768Y-94903800D01*
X108629069Y-94886385D01*
X108612868Y-94861797D01*
X108610371Y-94846145D01*
X108619442Y-94832941D01*
X108647289Y-94816245D01*
X108690540Y-94803030D01*
X108737464Y-94796478D01*
X108777128Y-94798945D01*
G37*
X108777128Y-94798945D02*
X108807954Y-94808568D01*
X108845916Y-94824563D01*
X108864296Y-94833159D01*
X108877561Y-94834713D01*
X108880495Y-94822798D01*
X108880498Y-94822461D01*
X108886709Y-94811087D01*
X108908131Y-94805256D01*
X108949653Y-94803614D01*
X109018812Y-94803614D01*
X109018812Y-95407179D01*
X108880495Y-95407179D01*
X108880495Y-94991027D01*
X108846110Y-94959161D01*
X108835368Y-94950104D01*
X108803370Y-94934630D01*
X108763965Y-94934010D01*
X108710312Y-94947664D01*
X108692225Y-94948529D01*
X108671008Y-94935283D01*
X108642768Y-94903800D01*
X108629069Y-94886385D01*
X108612868Y-94861797D01*
X108610371Y-94846145D01*
X108619442Y-94832941D01*
X108647289Y-94816245D01*
X108690540Y-94803030D01*
X108737464Y-94796478D01*
X108777128Y-94798945D01*
G36*
X111179167Y-96155571D02*
G01*
X111175962Y-96193018D01*
X111175413Y-96196450D01*
X111153838Y-96257835D01*
X111114438Y-96309877D01*
X111062752Y-96345135D01*
X111007248Y-96359729D01*
X110938977Y-96358597D01*
X110876173Y-96339029D01*
X110859815Y-96330771D01*
X110838779Y-96321923D01*
X110830774Y-96324676D01*
X110829505Y-96339029D01*
X110828922Y-96346186D01*
X110821394Y-96356772D01*
X110800488Y-96361645D01*
X110760346Y-96362822D01*
X110691188Y-96362822D01*
X110691188Y-96060930D01*
X110829505Y-96060930D01*
X110830496Y-96113230D01*
X110834519Y-96148050D01*
X110843108Y-96171905D01*
X110857797Y-96191895D01*
X110896584Y-96221618D01*
X110941974Y-96231582D01*
X110985989Y-96219260D01*
X111023060Y-96184888D01*
X111032859Y-96159735D01*
X111040097Y-96115194D01*
X111043279Y-96061155D01*
X111042277Y-96005728D01*
X111036961Y-95957022D01*
X111027204Y-95923148D01*
X111024087Y-95917593D01*
X110994038Y-95889674D01*
X110953315Y-95877306D01*
X110909579Y-95880183D01*
X110870491Y-95898000D01*
X110843710Y-95930452D01*
X110842603Y-95933181D01*
X110835963Y-95963634D01*
X110831278Y-96009139D01*
X110829505Y-96060930D01*
X110691188Y-96060930D01*
X110691188Y-95507773D01*
X110829505Y-95507773D01*
X110829505Y-95800878D01*
X110855124Y-95777693D01*
X110879792Y-95763282D01*
X110926480Y-95751236D01*
X110981056Y-95747354D01*
X111034354Y-95752120D01*
X111077207Y-95766014D01*
X111107878Y-95785779D01*
X111139471Y-95819449D01*
X111160733Y-95864730D01*
X111173514Y-95925981D01*
X111179664Y-96007563D01*
X111180568Y-96040540D01*
X111180633Y-96061155D01*
X111180761Y-96101813D01*
X111179167Y-96155571D01*
G37*
X111179167Y-96155571D02*
X111175962Y-96193018D01*
X111175413Y-96196450D01*
X111153838Y-96257835D01*
X111114438Y-96309877D01*
X111062752Y-96345135D01*
X111007248Y-96359729D01*
X110938977Y-96358597D01*
X110876173Y-96339029D01*
X110859815Y-96330771D01*
X110838779Y-96321923D01*
X110830774Y-96324676D01*
X110829505Y-96339029D01*
X110828922Y-96346186D01*
X110821394Y-96356772D01*
X110800488Y-96361645D01*
X110760346Y-96362822D01*
X110691188Y-96362822D01*
X110691188Y-96060930D01*
X110829505Y-96060930D01*
X110830496Y-96113230D01*
X110834519Y-96148050D01*
X110843108Y-96171905D01*
X110857797Y-96191895D01*
X110896584Y-96221618D01*
X110941974Y-96231582D01*
X110985989Y-96219260D01*
X111023060Y-96184888D01*
X111032859Y-96159735D01*
X111040097Y-96115194D01*
X111043279Y-96061155D01*
X111042277Y-96005728D01*
X111036961Y-95957022D01*
X111027204Y-95923148D01*
X111024087Y-95917593D01*
X110994038Y-95889674D01*
X110953315Y-95877306D01*
X110909579Y-95880183D01*
X110870491Y-95898000D01*
X110843710Y-95930452D01*
X110842603Y-95933181D01*
X110835963Y-95963634D01*
X110831278Y-96009139D01*
X110829505Y-96060930D01*
X110691188Y-96060930D01*
X110691188Y-95507773D01*
X110829505Y-95507773D01*
X110829505Y-95800878D01*
X110855124Y-95777693D01*
X110879792Y-95763282D01*
X110926480Y-95751236D01*
X110981056Y-95747354D01*
X111034354Y-95752120D01*
X111077207Y-95766014D01*
X111107878Y-95785779D01*
X111139471Y-95819449D01*
X111160733Y-95864730D01*
X111173514Y-95925981D01*
X111179664Y-96007563D01*
X111180568Y-96040540D01*
X111180633Y-96061155D01*
X111180761Y-96101813D01*
X111179167Y-96155571D01*
%LPC*%
D14*
X111760000Y-60325000D03*
D15*
X109220000Y-60325000D03*
D14*
X111760000Y-69215000D03*
D15*
X109220000Y-69215000D03*
D16*
X114300000Y-98425000D03*
D17*
X111760000Y-98425000D03*
X109220000Y-98425000D03*
D18*
X106680000Y-64135000D03*
D19*
X114300000Y-64135000D03*
D18*
X114300000Y-73025000D03*
D19*
X106680000Y-73025000D03*
M02*
